<svg xmlns="http://www.w3.org/2000/svg" xmlns:xlink="http://www.w3.org/1999/xlink" width="1366" zoomAndPan="magnify" viewBox="0 0 1024.5 576" height="768" preserveAspectRatio="xMidYMid meet" version="1.0"><defs><g/><clipPath id="65f1b79118"><path d="M 177.828125 92.992188 L 846.640625 92.992188 L 846.640625 483.007812 L 177.828125 483.007812 Z M 177.828125 92.992188 " clip-rule="nonzero"/></clipPath><clipPath id="147a56aacf"><path d="M 187.574219 92.992188 L 836.425781 92.992188 C 839.011719 92.992188 841.488281 94.019531 843.316406 95.847656 C 845.144531 97.675781 846.171875 100.152344 846.171875 102.738281 L 846.171875 473.261719 C 846.171875 475.847656 845.144531 478.324219 843.316406 480.152344 C 841.488281 481.980469 839.011719 483.007812 836.425781 483.007812 L 187.574219 483.007812 C 184.988281 483.007812 182.511719 481.980469 180.683594 480.152344 C 178.855469 478.324219 177.828125 475.847656 177.828125 473.261719 L 177.828125 102.738281 C 177.828125 100.152344 178.855469 97.675781 180.683594 95.847656 C 182.511719 94.019531 184.988281 92.992188 187.574219 92.992188 Z M 187.574219 92.992188 " clip-rule="nonzero"/></clipPath><clipPath id="33ab6342be"><path d="M 188.890625 104.316406 L 835 104.316406 L 835 471.683594 L 188.890625 471.683594 Z M 188.890625 104.316406 " clip-rule="nonzero"/></clipPath><clipPath id="5c75e3c434"><path d="M 202.382812 104.316406 L 821.617188 104.316406 C 829.070312 104.316406 835.109375 110.359375 835.109375 117.808594 L 835.109375 458.191406 C 835.109375 465.640625 829.070312 471.683594 821.617188 471.683594 L 202.382812 471.683594 C 194.929688 471.683594 188.890625 465.640625 188.890625 458.191406 L 188.890625 117.808594 C 188.890625 110.359375 194.929688 104.316406 202.382812 104.316406 Z M 202.382812 104.316406 " clip-rule="nonzero"/></clipPath><clipPath id="fd6bd31df8"><path d="M 452.582031 285.222656 L 550 285.222656 L 550 333.949219 L 452.582031 333.949219 Z M 452.582031 285.222656 " clip-rule="nonzero"/></clipPath><clipPath id="b017c6e76c"><path d="M 677.835938 410.902344 L 819.515625 410.902344 L 819.515625 453.632812 L 677.835938 453.632812 Z M 677.835938 410.902344 " clip-rule="nonzero"/></clipPath></defs><g clip-path="url(#65f1b79118)"><g clip-path="url(#147a56aacf)"><path fill="#545454" d="M 177.828125 92.992188 L 846.640625 92.992188 L 846.640625 483.007812 L 177.828125 483.007812 Z M 177.828125 92.992188 " fill-opacity="1" fill-rule="nonzero"/></g></g><g clip-path="url(#33ab6342be)"><g clip-path="url(#5c75e3c434)"><path fill="#fdfdfd" d="M 188.890625 104.316406 L 834.652344 104.316406 L 834.652344 471.683594 L 188.890625 471.683594 Z M 188.890625 104.316406 " fill-opacity="1" fill-rule="nonzero"/></g></g><g clip-path="url(#fd6bd31df8)"><path fill="#545454" d="M 476.863281 285.222656 L 525.609375 285.222656 C 539.003906 285.222656 549.882812 296.097656 549.882812 309.496094 C 549.882812 322.890625 539.003906 333.765625 525.609375 333.765625 L 476.863281 333.765625 C 463.46875 333.765625 452.59375 322.890625 452.59375 309.496094 C 452.59375 296.097656 463.46875 285.222656 476.863281 285.222656 Z M 476.863281 285.222656 " fill-opacity="1" fill-rule="nonzero"/></g><path fill="#ffffff" d="M 477.203125 331.050781 C 489.109375 331.050781 498.761719 321.398438 498.761719 309.496094 C 498.761719 297.589844 489.109375 287.9375 477.203125 287.9375 C 465.296875 287.9375 455.648438 297.589844 455.648438 309.496094 C 455.648438 321.398438 465.296875 331.050781 477.203125 331.050781 Z M 477.203125 331.050781 " fill-opacity="1" fill-rule="nonzero"/><path fill="#ffffff" d="M 798.105469 452.191406 L 699.257812 452.148438 C 688.308594 452.144531 679.433594 443.261719 679.4375 432.3125 C 679.441406 421.359375 688.324219 412.484375 699.277344 412.488281 L 798.121094 412.53125 C 809.074219 412.535156 817.949219 421.417969 817.941406 432.371094 C 817.9375 443.320312 809.058594 452.195312 798.105469 452.191406 " fill-opacity="1" fill-rule="nonzero"/><g clip-path="url(#b017c6e76c)"><path fill="#545454" d="M 798.105469 450.605469 C 798.109375 450.605469 798.113281 450.605469 798.113281 450.605469 C 808.167969 450.605469 816.351562 442.425781 816.355469 432.367188 C 816.363281 422.308594 808.179688 414.121094 798.121094 414.117188 L 699.277344 414.074219 C 699.273438 414.074219 699.269531 414.074219 699.269531 414.074219 C 689.210938 414.074219 681.027344 422.253906 681.023438 432.3125 C 681.023438 437.183594 682.917969 441.765625 686.363281 445.214844 C 689.804688 448.660156 694.386719 450.5625 699.261719 450.5625 Z M 798.113281 453.777344 C 798.109375 453.777344 798.109375 453.777344 798.105469 453.777344 L 699.257812 453.734375 C 693.539062 453.730469 688.160156 451.503906 684.117188 447.457031 C 680.074219 443.410156 677.851562 438.03125 677.851562 432.308594 C 677.855469 426.589844 680.085938 421.214844 684.132812 417.167969 C 688.175781 413.128906 693.550781 410.902344 699.269531 410.902344 C 699.269531 410.902344 699.273438 410.902344 699.277344 410.902344 L 798.121094 410.945312 C 803.84375 410.949219 809.21875 413.179688 813.261719 417.226562 C 817.304688 421.269531 819.53125 426.648438 819.527344 432.371094 C 819.527344 438.089844 817.296875 443.46875 813.25 447.511719 C 809.207031 451.550781 803.832031 453.777344 798.113281 453.777344 " fill-opacity="1" fill-rule="nonzero"/></g><path fill="#545454" d="M 807.921875 430.25 L 802.316406 424.644531 L 800.226562 426.734375 L 805.832031 432.339844 L 800.226562 437.945312 L 802.316406 440.035156 L 810.015625 432.339844 L 807.921875 430.25 " fill-opacity="1" fill-rule="nonzero"/><g fill="#545454" fill-opacity="1"><g transform="translate(377.455517, 201.236724)"><g><path d="M 7.796875 0.46875 C 6.472656 0.46875 5.460938 0.101562 4.765625 -0.625 C 4.066406 -1.363281 3.71875 -2.394531 3.71875 -3.71875 L 3.71875 -33.234375 C 3.71875 -34.566406 4.066406 -35.585938 4.765625 -36.296875 C 5.460938 -37.015625 6.472656 -37.375 7.796875 -37.375 C 9.085938 -37.375 10.082031 -37.015625 10.78125 -36.296875 C 11.476562 -35.585938 11.828125 -34.566406 11.828125 -33.234375 L 11.828125 -20.828125 L 11.9375 -20.828125 L 25.859375 -35.390625 C 26.453125 -36.015625 27.070312 -36.492188 27.71875 -36.828125 C 28.363281 -37.160156 29.101562 -37.328125 29.9375 -37.328125 C 31.15625 -37.328125 32.035156 -37.007812 32.578125 -36.375 C 33.117188 -35.75 33.351562 -35.015625 33.28125 -34.171875 C 33.21875 -33.335938 32.835938 -32.554688 32.140625 -31.828125 L 18.15625 -17.53125 L 18.21875 -21.046875 L 32.875 -5.390625 C 33.675781 -4.515625 34.082031 -3.625 34.09375 -2.71875 C 34.113281 -1.8125 33.816406 -1.050781 33.203125 -0.4375 C 32.597656 0.164062 31.703125 0.46875 30.515625 0.46875 C 29.503906 0.46875 28.691406 0.257812 28.078125 -0.15625 C 27.472656 -0.570312 26.800781 -1.179688 26.0625 -1.984375 L 11.9375 -16.859375 L 11.828125 -16.859375 L 11.828125 -3.71875 C 11.828125 -2.394531 11.484375 -1.363281 10.796875 -0.625 C 10.117188 0.101562 9.117188 0.46875 7.796875 0.46875 Z M 7.796875 0.46875 "/></g></g></g><g fill="#545454" fill-opacity="1"><g transform="translate(413.462205, 201.236724)"><g><path d="M 12.296875 0.578125 C 9.191406 0.578125 6.867188 -0.285156 5.328125 -2.015625 C 3.796875 -3.742188 3.03125 -6.316406 3.03125 -9.734375 L 3.03125 -33.34375 C 3.03125 -34.664062 3.367188 -35.664062 4.046875 -36.34375 C 4.734375 -37.03125 5.722656 -37.375 7.015625 -37.375 C 8.273438 -37.375 9.242188 -37.03125 9.921875 -36.34375 C 10.597656 -35.664062 10.9375 -34.664062 10.9375 -33.34375 L 10.9375 -10.046875 C 10.9375 -8.617188 11.238281 -7.5625 11.84375 -6.875 C 12.457031 -6.195312 13.273438 -5.859375 14.296875 -5.859375 C 14.566406 -5.859375 14.820312 -5.875 15.0625 -5.90625 C 15.3125 -5.945312 15.578125 -5.96875 15.859375 -5.96875 C 16.421875 -6.039062 16.8125 -5.875 17.03125 -5.46875 C 17.257812 -5.070312 17.375 -4.28125 17.375 -3.09375 C 17.375 -2.039062 17.164062 -1.242188 16.75 -0.703125 C 16.332031 -0.160156 15.6875 0.191406 14.8125 0.359375 C 14.46875 0.398438 14.066406 0.445312 13.609375 0.5 C 13.148438 0.550781 12.710938 0.578125 12.296875 0.578125 Z M 12.296875 0.578125 "/></g></g></g><g fill="#545454" fill-opacity="1"><g transform="translate(430.889857, 201.236724)"><g><path d="M 11.71875 0.578125 C 9.84375 0.578125 8.148438 0.210938 6.640625 -0.515625 C 5.140625 -1.253906 3.972656 -2.25 3.140625 -3.5 C 2.304688 -4.757812 1.890625 -6.175781 1.890625 -7.75 C 1.890625 -9.632812 2.375 -11.125 3.34375 -12.21875 C 4.320312 -13.320312 5.910156 -14.109375 8.109375 -14.578125 C 10.304688 -15.046875 13.222656 -15.28125 16.859375 -15.28125 L 19.625 -15.28125 L 19.625 -11.203125 L 16.90625 -11.203125 C 15.125 -11.203125 13.679688 -11.101562 12.578125 -10.90625 C 11.484375 -10.71875 10.703125 -10.394531 10.234375 -9.9375 C 9.765625 -9.488281 9.53125 -8.863281 9.53125 -8.0625 C 9.53125 -7.082031 9.867188 -6.28125 10.546875 -5.65625 C 11.222656 -5.03125 12.207031 -4.71875 13.5 -4.71875 C 14.507812 -4.71875 15.40625 -4.953125 16.1875 -5.421875 C 16.976562 -5.890625 17.597656 -6.53125 18.046875 -7.34375 C 18.503906 -8.164062 18.734375 -9.101562 18.734375 -10.15625 L 18.734375 -16.171875 C 18.734375 -17.710938 18.382812 -18.804688 17.6875 -19.453125 C 16.988281 -20.097656 15.804688 -20.421875 14.140625 -20.421875 C 13.191406 -20.421875 12.164062 -20.304688 11.0625 -20.078125 C 9.96875 -19.847656 8.757812 -19.472656 7.4375 -18.953125 C 6.664062 -18.597656 5.984375 -18.515625 5.390625 -18.703125 C 4.796875 -18.898438 4.34375 -19.25 4.03125 -19.75 C 3.71875 -20.257812 3.5625 -20.816406 3.5625 -21.421875 C 3.5625 -22.035156 3.734375 -22.628906 4.078125 -23.203125 C 4.429688 -23.785156 5.007812 -24.21875 5.8125 -24.5 C 7.445312 -25.15625 8.988281 -25.601562 10.4375 -25.84375 C 11.882812 -26.09375 13.222656 -26.21875 14.453125 -26.21875 C 17.140625 -26.21875 19.34375 -25.828125 21.0625 -25.046875 C 22.789062 -24.265625 24.09375 -23.0625 24.96875 -21.4375 C 25.84375 -19.8125 26.28125 -17.726562 26.28125 -15.1875 L 26.28125 -3.5625 C 26.28125 -2.269531 25.960938 -1.273438 25.328125 -0.578125 C 24.703125 0.117188 23.796875 0.46875 22.609375 0.46875 C 21.421875 0.46875 20.503906 0.117188 19.859375 -0.578125 C 19.210938 -1.273438 18.890625 -2.269531 18.890625 -3.5625 L 18.890625 -5.5 L 19.265625 -5.1875 C 19.054688 -4 18.609375 -2.976562 17.921875 -2.125 C 17.242188 -1.269531 16.378906 -0.601562 15.328125 -0.125 C 14.285156 0.34375 13.082031 0.578125 11.71875 0.578125 Z M 11.71875 0.578125 "/></g></g></g><g fill="#545454" fill-opacity="1"><g transform="translate(460.040618, 201.236724)"><g><path d="M 7.125 0.46875 C 5.789062 0.46875 4.773438 0.117188 4.078125 -0.578125 C 3.378906 -1.273438 3.03125 -2.269531 3.03125 -3.5625 L 3.03125 -22.140625 C 3.03125 -23.429688 3.367188 -24.414062 4.046875 -25.09375 C 4.734375 -25.78125 5.6875 -26.125 6.90625 -26.125 C 8.164062 -26.125 9.125 -25.78125 9.78125 -25.09375 C 10.445312 -24.414062 10.78125 -23.429688 10.78125 -22.140625 L 10.78125 -19.421875 L 10.265625 -19.421875 C 10.679688 -21.515625 11.601562 -23.132812 13.03125 -24.28125 C 14.46875 -25.4375 16.316406 -26.082031 18.578125 -26.21875 C 19.453125 -26.289062 20.125 -26.070312 20.59375 -25.5625 C 21.0625 -25.0625 21.316406 -24.234375 21.359375 -23.078125 C 21.429688 -22.003906 21.210938 -21.148438 20.703125 -20.515625 C 20.191406 -19.890625 19.34375 -19.507812 18.15625 -19.375 L 16.953125 -19.265625 C 14.960938 -19.085938 13.488281 -18.507812 12.53125 -17.53125 C 11.570312 -16.550781 11.09375 -15.140625 11.09375 -13.296875 L 11.09375 -3.5625 C 11.09375 -2.269531 10.753906 -1.273438 10.078125 -0.578125 C 9.398438 0.117188 8.414062 0.46875 7.125 0.46875 Z M 7.125 0.46875 "/></g></g></g><g fill="#545454" fill-opacity="1"><g transform="translate(481.602767, 201.236724)"><g><path d="M 7.015625 0.421875 C 5.722656 0.421875 4.734375 0.046875 4.046875 -0.703125 C 3.367188 -1.453125 3.03125 -2.507812 3.03125 -3.875 L 3.03125 -21.78125 C 3.03125 -23.175781 3.367188 -24.25 4.046875 -25 C 4.734375 -25.75 5.722656 -26.125 7.015625 -26.125 C 8.273438 -26.125 9.242188 -25.75 9.921875 -25 C 10.597656 -24.25 10.9375 -23.175781 10.9375 -21.78125 L 10.9375 -3.875 C 10.9375 -2.507812 10.601562 -1.453125 9.9375 -0.703125 C 9.28125 0.046875 8.304688 0.421875 7.015625 0.421875 Z M 7.015625 -30.40625 C 5.546875 -30.40625 4.414062 -30.742188 3.625 -31.421875 C 2.84375 -32.109375 2.453125 -33.082031 2.453125 -34.34375 C 2.453125 -35.632812 2.84375 -36.617188 3.625 -37.296875 C 4.414062 -37.972656 5.546875 -38.3125 7.015625 -38.3125 C 8.484375 -38.3125 9.597656 -37.972656 10.359375 -37.296875 C 11.128906 -36.617188 11.515625 -35.632812 11.515625 -34.34375 C 11.515625 -33.082031 11.128906 -32.109375 10.359375 -31.421875 C 9.597656 -30.742188 8.484375 -30.40625 7.015625 -30.40625 Z M 7.015625 -30.40625 "/></g></g></g><g fill="#545454" fill-opacity="1"><g transform="translate(495.628632, 201.236724)"><g><path d="M 15.65625 0.578125 C 13.25 0.578125 11.234375 0.175781 9.609375 -0.625 C 7.984375 -1.425781 6.773438 -2.59375 5.984375 -4.125 C 5.203125 -5.664062 4.8125 -7.609375 4.8125 -9.953125 L 4.8125 -19.78125 L 2.625 -19.78125 C 1.644531 -19.78125 0.882812 -20.039062 0.34375 -20.5625 C -0.195312 -21.09375 -0.46875 -21.8125 -0.46875 -22.71875 C -0.46875 -23.695312 -0.195312 -24.4375 0.34375 -24.9375 C 0.882812 -25.445312 1.644531 -25.703125 2.625 -25.703125 L 4.8125 -25.703125 L 4.8125 -29.671875 C 4.8125 -31.003906 5.160156 -32.007812 5.859375 -32.6875 C 6.554688 -33.363281 7.535156 -33.703125 8.796875 -33.703125 C 10.085938 -33.703125 11.0625 -33.363281 11.71875 -32.6875 C 12.382812 -32.007812 12.71875 -31.003906 12.71875 -29.671875 L 12.71875 -25.703125 L 17.6875 -25.703125 C 18.664062 -25.703125 19.414062 -25.445312 19.9375 -24.9375 C 20.46875 -24.4375 20.734375 -23.695312 20.734375 -22.71875 C 20.734375 -21.8125 20.46875 -21.09375 19.9375 -20.5625 C 19.414062 -20.039062 18.664062 -19.78125 17.6875 -19.78125 L 12.71875 -19.78125 L 12.71875 -10.265625 C 12.71875 -8.796875 13.054688 -7.691406 13.734375 -6.953125 C 14.421875 -6.222656 15.515625 -5.859375 17.015625 -5.859375 C 17.535156 -5.859375 18.019531 -5.910156 18.46875 -6.015625 C 18.925781 -6.117188 19.347656 -6.191406 19.734375 -6.234375 C 20.222656 -6.265625 20.625 -6.113281 20.9375 -5.78125 C 21.25 -5.445312 21.40625 -4.722656 21.40625 -3.609375 C 21.40625 -2.773438 21.265625 -2.039062 20.984375 -1.40625 C 20.710938 -0.78125 20.226562 -0.328125 19.53125 -0.046875 C 19.070312 0.117188 18.445312 0.265625 17.65625 0.390625 C 16.875 0.515625 16.207031 0.578125 15.65625 0.578125 Z M 15.65625 0.578125 "/></g></g></g><g fill="#545454" fill-opacity="1"><g transform="translate(516.772099, 201.236724)"><g><path d="M 7.015625 0.421875 C 5.722656 0.421875 4.734375 0.046875 4.046875 -0.703125 C 3.367188 -1.453125 3.03125 -2.507812 3.03125 -3.875 L 3.03125 -21.78125 C 3.03125 -23.175781 3.367188 -24.25 4.046875 -25 C 4.734375 -25.75 5.722656 -26.125 7.015625 -26.125 C 8.273438 -26.125 9.242188 -25.75 9.921875 -25 C 10.597656 -24.25 10.9375 -23.175781 10.9375 -21.78125 L 10.9375 -3.875 C 10.9375 -2.507812 10.601562 -1.453125 9.9375 -0.703125 C 9.28125 0.046875 8.304688 0.421875 7.015625 0.421875 Z M 7.015625 -30.40625 C 5.546875 -30.40625 4.414062 -30.742188 3.625 -31.421875 C 2.84375 -32.109375 2.453125 -33.082031 2.453125 -34.34375 C 2.453125 -35.632812 2.84375 -36.617188 3.625 -37.296875 C 4.414062 -37.972656 5.546875 -38.3125 7.015625 -38.3125 C 8.484375 -38.3125 9.597656 -37.972656 10.359375 -37.296875 C 11.128906 -36.617188 11.515625 -35.632812 11.515625 -34.34375 C 11.515625 -33.082031 11.128906 -32.109375 10.359375 -31.421875 C 9.597656 -30.742188 8.484375 -30.40625 7.015625 -30.40625 Z M 7.015625 -30.40625 "/></g></g></g><g fill="#545454" fill-opacity="1"><g transform="translate(530.797974, 201.236724)"><g/></g></g><g fill="#545454" fill-opacity="1"><g transform="translate(545.399513, 201.236724)"><g><path d="M 20.828125 0.578125 C 17.203125 0.578125 14.019531 -0.210938 11.28125 -1.796875 C 8.539062 -3.390625 6.410156 -5.613281 4.890625 -8.46875 C 3.378906 -11.332031 2.625 -14.671875 2.625 -18.484375 C 2.625 -21.378906 3.050781 -23.984375 3.90625 -26.296875 C 4.757812 -28.617188 5.988281 -30.609375 7.59375 -32.265625 C 9.195312 -33.921875 11.125 -35.203125 13.375 -36.109375 C 15.625 -37.023438 18.109375 -37.484375 20.828125 -37.484375 C 24.523438 -37.484375 27.734375 -36.695312 30.453125 -35.125 C 33.179688 -33.550781 35.300781 -31.34375 36.8125 -28.5 C 38.332031 -25.65625 39.09375 -22.332031 39.09375 -18.53125 C 39.09375 -15.632812 38.65625 -13.015625 37.78125 -10.671875 C 36.914062 -8.335938 35.679688 -6.332031 34.078125 -4.65625 C 32.472656 -2.976562 30.550781 -1.6875 28.3125 -0.78125 C 26.082031 0.125 23.585938 0.578125 20.828125 0.578125 Z M 20.828125 -6.328125 C 22.890625 -6.328125 24.644531 -6.804688 26.09375 -7.765625 C 27.539062 -8.734375 28.65625 -10.128906 29.4375 -11.953125 C 30.226562 -13.785156 30.625 -15.960938 30.625 -18.484375 C 30.625 -22.316406 29.765625 -25.285156 28.046875 -27.390625 C 26.335938 -29.503906 23.929688 -30.5625 20.828125 -30.5625 C 18.804688 -30.5625 17.0625 -30.09375 15.59375 -29.15625 C 14.132812 -28.21875 13.019531 -26.835938 12.25 -25.015625 C 11.476562 -23.203125 11.09375 -21.023438 11.09375 -18.484375 C 11.09375 -14.671875 11.945312 -11.691406 13.65625 -9.546875 C 15.375 -7.398438 17.765625 -6.328125 20.828125 -6.328125 Z M 20.828125 -6.328125 "/></g></g></g><g fill="#545454" fill-opacity="1"><g transform="translate(587.05841, 201.236724)"><g><path d="M 16.90625 0.578125 C 15.4375 0.578125 13.941406 0.460938 12.421875 0.234375 C 10.910156 0.00390625 9.460938 -0.316406 8.078125 -0.734375 C 6.703125 -1.148438 5.472656 -1.671875 4.390625 -2.296875 C 3.628906 -2.722656 3.085938 -3.273438 2.765625 -3.953125 C 2.453125 -4.628906 2.335938 -5.316406 2.421875 -6.015625 C 2.515625 -6.710938 2.78125 -7.332031 3.21875 -7.875 C 3.65625 -8.414062 4.210938 -8.765625 4.890625 -8.921875 C 5.578125 -9.078125 6.335938 -8.945312 7.171875 -8.53125 C 8.597656 -7.726562 10.15625 -7.132812 11.84375 -6.75 C 13.539062 -6.363281 15.226562 -6.171875 16.90625 -6.171875 C 19.457031 -6.171875 21.269531 -6.5625 22.34375 -7.34375 C 23.425781 -8.132812 23.96875 -9.125 23.96875 -10.3125 C 23.96875 -11.320312 23.582031 -12.125 22.8125 -12.71875 C 22.050781 -13.3125 20.710938 -13.816406 18.796875 -14.234375 L 12.875 -15.5 C 9.53125 -16.195312 7.046875 -17.390625 5.421875 -19.078125 C 3.796875 -20.773438 2.984375 -23 2.984375 -25.75 C 2.984375 -27.5 3.347656 -29.085938 4.078125 -30.515625 C 4.816406 -31.941406 5.847656 -33.175781 7.171875 -34.21875 C 8.492188 -35.269531 10.070312 -36.078125 11.90625 -36.640625 C 13.738281 -37.203125 15.753906 -37.484375 17.953125 -37.484375 C 19.910156 -37.484375 21.828125 -37.242188 23.703125 -36.765625 C 25.585938 -36.296875 27.25 -35.609375 28.6875 -34.703125 C 29.382812 -34.285156 29.863281 -33.753906 30.125 -33.109375 C 30.382812 -32.460938 30.46875 -31.816406 30.375 -31.171875 C 30.289062 -30.523438 30.03125 -29.957031 29.59375 -29.46875 C 29.164062 -28.976562 28.617188 -28.660156 27.953125 -28.515625 C 27.285156 -28.378906 26.484375 -28.539062 25.546875 -29 C 24.390625 -29.59375 23.164062 -30.023438 21.875 -30.296875 C 20.582031 -30.578125 19.257812 -30.71875 17.90625 -30.71875 C 16.4375 -30.71875 15.1875 -30.523438 14.15625 -30.140625 C 13.125 -29.765625 12.335938 -29.226562 11.796875 -28.53125 C 11.265625 -27.832031 11 -27.03125 11 -26.125 C 11 -25.113281 11.363281 -24.289062 12.09375 -23.65625 C 12.820312 -23.03125 14.09375 -22.523438 15.90625 -22.140625 L 21.828125 -20.890625 C 25.242188 -20.148438 27.789062 -18.96875 29.46875 -17.34375 C 31.144531 -15.726562 31.984375 -13.59375 31.984375 -10.9375 C 31.984375 -9.195312 31.632812 -7.617188 30.9375 -6.203125 C 30.238281 -4.785156 29.222656 -3.570312 27.890625 -2.5625 C 26.566406 -1.550781 24.976562 -0.773438 23.125 -0.234375 C 21.28125 0.304688 19.207031 0.578125 16.90625 0.578125 Z M 16.90625 0.578125 "/></g></g></g><g fill="#545454" fill-opacity="1"><g transform="translate(426.17569, 247.227613)"><g><path d="M 2.78125 0.140625 C 2.46875 0.140625 2.222656 0.0546875 2.046875 -0.109375 C 1.878906 -0.285156 1.796875 -0.539062 1.796875 -0.875 L 1.796875 -14.09375 C 1.796875 -14.414062 1.878906 -14.660156 2.046875 -14.828125 C 2.222656 -14.992188 2.46875 -15.078125 2.78125 -15.078125 C 3.101562 -15.078125 3.347656 -14.992188 3.515625 -14.828125 C 3.679688 -14.660156 3.765625 -14.414062 3.765625 -14.09375 L 3.765625 -8.171875 L 3.8125 -8.171875 L 10.515625 -14.5625 C 10.710938 -14.738281 10.894531 -14.867188 11.0625 -14.953125 C 11.238281 -15.035156 11.4375 -15.078125 11.65625 -15.078125 C 11.945312 -15.078125 12.160156 -15.003906 12.296875 -14.859375 C 12.429688 -14.710938 12.484375 -14.535156 12.453125 -14.328125 C 12.429688 -14.128906 12.328125 -13.9375 12.140625 -13.75 L 5.15625 -7.1875 L 5.171875 -8.171875 L 12.484375 -1.3125 C 12.703125 -1.101562 12.816406 -0.878906 12.828125 -0.640625 C 12.847656 -0.410156 12.785156 -0.222656 12.640625 -0.078125 C 12.492188 0.0664062 12.269531 0.140625 11.96875 0.140625 C 11.726562 0.140625 11.523438 0.09375 11.359375 0 C 11.203125 -0.09375 11.019531 -0.25 10.8125 -0.46875 L 3.8125 -7.015625 L 3.765625 -7.015625 L 3.765625 -0.875 C 3.765625 -0.539062 3.679688 -0.285156 3.515625 -0.109375 C 3.359375 0.0546875 3.113281 0.140625 2.78125 0.140625 Z M 2.78125 0.140625 "/></g></g></g><g fill="#545454" fill-opacity="1"><g transform="translate(439.609689, 247.227613)"><g><path d="M 4.78125 0.1875 C 3.726562 0.1875 2.925781 -0.125 2.375 -0.75 C 1.820312 -1.375 1.546875 -2.28125 1.546875 -3.46875 L 1.546875 -14.109375 C 1.546875 -14.429688 1.628906 -14.671875 1.796875 -14.828125 C 1.972656 -14.992188 2.207031 -15.078125 2.5 -15.078125 C 2.8125 -15.078125 3.050781 -14.992188 3.21875 -14.828125 C 3.382812 -14.671875 3.46875 -14.429688 3.46875 -14.109375 L 3.46875 -3.625 C 3.46875 -2.882812 3.617188 -2.332031 3.921875 -1.96875 C 4.234375 -1.613281 4.671875 -1.4375 5.234375 -1.4375 C 5.359375 -1.4375 5.46875 -1.441406 5.5625 -1.453125 C 5.664062 -1.460938 5.769531 -1.472656 5.875 -1.484375 C 6.03125 -1.492188 6.140625 -1.445312 6.203125 -1.34375 C 6.273438 -1.25 6.3125 -1.054688 6.3125 -0.765625 C 6.3125 -0.492188 6.25 -0.285156 6.125 -0.140625 C 6.007812 0.00390625 5.816406 0.0976562 5.546875 0.140625 C 5.421875 0.160156 5.296875 0.171875 5.171875 0.171875 C 5.046875 0.179688 4.914062 0.1875 4.78125 0.1875 Z M 4.78125 0.1875 "/></g></g></g><g fill="#545454" fill-opacity="1"><g transform="translate(445.987661, 247.227613)"><g><path d="M 4.828125 0.1875 C 4.117188 0.1875 3.476562 0.046875 2.90625 -0.234375 C 2.34375 -0.515625 1.898438 -0.894531 1.578125 -1.375 C 1.265625 -1.851562 1.109375 -2.390625 1.109375 -2.984375 C 1.109375 -3.742188 1.296875 -4.34375 1.671875 -4.78125 C 2.054688 -5.21875 2.695312 -5.53125 3.59375 -5.71875 C 4.5 -5.914062 5.71875 -6.015625 7.25 -6.015625 L 8.234375 -6.015625 L 8.234375 -4.78125 L 7.28125 -4.78125 C 6.195312 -4.78125 5.335938 -4.726562 4.703125 -4.625 C 4.078125 -4.53125 3.640625 -4.359375 3.390625 -4.109375 C 3.140625 -3.867188 3.015625 -3.53125 3.015625 -3.09375 C 3.015625 -2.539062 3.207031 -2.085938 3.59375 -1.734375 C 3.976562 -1.378906 4.507812 -1.203125 5.1875 -1.203125 C 5.726562 -1.203125 6.203125 -1.332031 6.609375 -1.59375 C 7.015625 -1.851562 7.335938 -2.207031 7.578125 -2.65625 C 7.828125 -3.101562 7.953125 -3.613281 7.953125 -4.1875 L 7.953125 -6.625 C 7.953125 -7.457031 7.78125 -8.0625 7.4375 -8.4375 C 7.09375 -8.8125 6.519531 -9 5.71875 -9 C 5.25 -9 4.765625 -8.9375 4.265625 -8.8125 C 3.773438 -8.6875 3.265625 -8.488281 2.734375 -8.21875 C 2.523438 -8.125 2.34375 -8.09375 2.1875 -8.125 C 2.03125 -8.15625 1.90625 -8.238281 1.8125 -8.375 C 1.71875 -8.507812 1.664062 -8.65625 1.65625 -8.8125 C 1.65625 -8.976562 1.691406 -9.140625 1.765625 -9.296875 C 1.847656 -9.453125 1.988281 -9.566406 2.1875 -9.640625 C 2.800781 -9.953125 3.414062 -10.175781 4.03125 -10.3125 C 4.644531 -10.445312 5.222656 -10.515625 5.765625 -10.515625 C 6.679688 -10.515625 7.4375 -10.367188 8.03125 -10.078125 C 8.625 -9.785156 9.066406 -9.335938 9.359375 -8.734375 C 9.660156 -8.140625 9.8125 -7.375 9.8125 -6.4375 L 9.8125 -0.84375 C 9.8125 -0.519531 9.734375 -0.273438 9.578125 -0.109375 C 9.421875 0.0546875 9.195312 0.140625 8.90625 0.140625 C 8.613281 0.140625 8.382812 0.0546875 8.21875 -0.109375 C 8.0625 -0.273438 7.984375 -0.519531 7.984375 -0.84375 L 7.984375 -2.359375 L 8.171875 -2.359375 C 8.066406 -1.828125 7.859375 -1.367188 7.546875 -0.984375 C 7.234375 -0.609375 6.847656 -0.316406 6.390625 -0.109375 C 5.929688 0.0859375 5.410156 0.1875 4.828125 0.1875 Z M 4.828125 0.1875 "/></g></g></g><g fill="#545454" fill-opacity="1"><g transform="translate(457.281548, 247.227613)"><g><path d="M 2.5 0.109375 C 2.207031 0.109375 1.972656 0.0195312 1.796875 -0.15625 C 1.628906 -0.34375 1.546875 -0.601562 1.546875 -0.9375 L 1.546875 -9.390625 C 1.546875 -9.722656 1.628906 -9.976562 1.796875 -10.15625 C 1.972656 -10.332031 2.207031 -10.421875 2.5 -10.421875 C 2.8125 -10.421875 3.050781 -10.332031 3.21875 -10.15625 C 3.382812 -9.976562 3.46875 -9.722656 3.46875 -9.390625 L 3.46875 -0.9375 C 3.46875 -0.601562 3.382812 -0.34375 3.21875 -0.15625 C 3.0625 0.0195312 2.820312 0.109375 2.5 0.109375 Z M 2.5 -12.71875 C 2.113281 -12.71875 1.8125 -12.816406 1.59375 -13.015625 C 1.375 -13.222656 1.265625 -13.492188 1.265625 -13.828125 C 1.265625 -14.203125 1.375 -14.484375 1.59375 -14.671875 C 1.8125 -14.859375 2.113281 -14.953125 2.5 -14.953125 C 2.90625 -14.953125 3.210938 -14.859375 3.421875 -14.671875 C 3.628906 -14.484375 3.734375 -14.203125 3.734375 -13.828125 C 3.734375 -13.492188 3.628906 -13.222656 3.421875 -13.015625 C 3.210938 -12.816406 2.90625 -12.71875 2.5 -12.71875 Z M 2.5 -12.71875 "/></g></g></g><g fill="#545454" fill-opacity="1"><g transform="translate(462.303407, 247.227613)"><g><path d="M 2.546875 0.140625 C 2.242188 0.140625 2.007812 0.0546875 1.84375 -0.109375 C 1.675781 -0.273438 1.59375 -0.519531 1.59375 -0.84375 L 1.59375 -9.484375 C 1.59375 -9.816406 1.675781 -10.0625 1.84375 -10.21875 C 2.007812 -10.382812 2.242188 -10.46875 2.546875 -10.46875 C 2.835938 -10.46875 3.0625 -10.382812 3.21875 -10.21875 C 3.382812 -10.0625 3.46875 -9.816406 3.46875 -9.484375 L 3.46875 -7.6875 L 3.234375 -8.078125 C 3.503906 -8.847656 3.9375 -9.445312 4.53125 -9.875 C 5.132812 -10.300781 5.851562 -10.515625 6.6875 -10.515625 C 7.570312 -10.515625 8.28125 -10.304688 8.8125 -9.890625 C 9.351562 -9.472656 9.710938 -8.835938 9.890625 -7.984375 L 9.59375 -7.984375 C 9.851562 -8.765625 10.3125 -9.378906 10.96875 -9.828125 C 11.625 -10.285156 12.390625 -10.515625 13.265625 -10.515625 C 14.035156 -10.515625 14.671875 -10.359375 15.171875 -10.046875 C 15.679688 -9.742188 16.0625 -9.289062 16.3125 -8.6875 C 16.570312 -8.09375 16.703125 -7.332031 16.703125 -6.40625 L 16.703125 -0.84375 C 16.703125 -0.519531 16.613281 -0.273438 16.4375 -0.109375 C 16.269531 0.0546875 16.039062 0.140625 15.75 0.140625 C 15.4375 0.140625 15.191406 0.0546875 15.015625 -0.109375 C 14.847656 -0.273438 14.765625 -0.519531 14.765625 -0.84375 L 14.765625 -6.3125 C 14.765625 -7.21875 14.609375 -7.878906 14.296875 -8.296875 C 13.984375 -8.722656 13.460938 -8.9375 12.734375 -8.9375 C 11.929688 -8.9375 11.289062 -8.65625 10.8125 -8.09375 C 10.34375 -7.539062 10.109375 -6.78125 10.109375 -5.8125 L 10.109375 -0.84375 C 10.109375 -0.519531 10.023438 -0.273438 9.859375 -0.109375 C 9.703125 0.0546875 9.46875 0.140625 9.15625 0.140625 C 8.84375 0.140625 8.597656 0.0546875 8.421875 -0.109375 C 8.253906 -0.273438 8.171875 -0.519531 8.171875 -0.84375 L 8.171875 -6.3125 C 8.171875 -7.21875 8.015625 -7.878906 7.703125 -8.296875 C 7.398438 -8.722656 6.878906 -8.9375 6.140625 -8.9375 C 5.335938 -8.9375 4.695312 -8.65625 4.21875 -8.09375 C 3.75 -7.539062 3.515625 -6.78125 3.515625 -5.8125 L 3.515625 -0.84375 C 3.515625 -0.1875 3.191406 0.140625 2.546875 0.140625 Z M 2.546875 0.140625 "/></g></g></g><g fill="#545454" fill-opacity="1"><g transform="translate(480.547373, 247.227613)"><g/></g></g><g fill="#545454" fill-opacity="1"><g transform="translate(486.077774, 247.227613)"><g><path d="M 3.921875 3.96875 C 3.691406 3.96875 3.503906 3.90625 3.359375 3.78125 C 3.210938 3.664062 3.128906 3.503906 3.109375 3.296875 C 3.085938 3.085938 3.125 2.875 3.21875 2.65625 L 4.65625 -0.609375 L 4.65625 0.1875 L 0.65625 -9.125 C 0.5625 -9.363281 0.523438 -9.582031 0.546875 -9.78125 C 0.578125 -9.976562 0.671875 -10.140625 0.828125 -10.265625 C 0.992188 -10.398438 1.21875 -10.46875 1.5 -10.46875 C 1.738281 -10.46875 1.925781 -10.410156 2.0625 -10.296875 C 2.207031 -10.179688 2.347656 -9.984375 2.484375 -9.703125 L 5.8125 -1.5 L 5.21875 -1.5 L 8.609375 -9.703125 C 8.710938 -9.984375 8.84375 -10.179688 9 -10.296875 C 9.15625 -10.410156 9.367188 -10.46875 9.640625 -10.46875 C 9.878906 -10.46875 10.066406 -10.398438 10.203125 -10.265625 C 10.335938 -10.140625 10.414062 -9.976562 10.4375 -9.78125 C 10.46875 -9.582031 10.425781 -9.375 10.3125 -9.15625 L 4.984375 3.203125 C 4.835938 3.492188 4.691406 3.691406 4.546875 3.796875 C 4.398438 3.910156 4.191406 3.96875 3.921875 3.96875 Z M 3.921875 3.96875 "/></g></g></g><g fill="#545454" fill-opacity="1"><g transform="translate(497.032629, 247.227613)"><g><path d="M 5.9375 0.1875 C 4.914062 0.1875 4.03125 -0.03125 3.28125 -0.46875 C 2.53125 -0.90625 1.953125 -1.523438 1.546875 -2.328125 C 1.140625 -3.128906 0.9375 -4.078125 0.9375 -5.171875 C 0.9375 -5.992188 1.050781 -6.734375 1.28125 -7.390625 C 1.507812 -8.046875 1.84375 -8.601562 2.28125 -9.0625 C 2.71875 -9.53125 3.242188 -9.890625 3.859375 -10.140625 C 4.472656 -10.390625 5.164062 -10.515625 5.9375 -10.515625 C 6.945312 -10.515625 7.828125 -10.296875 8.578125 -9.859375 C 9.328125 -9.421875 9.90625 -8.800781 10.3125 -8 C 10.726562 -7.195312 10.9375 -6.253906 10.9375 -5.171875 C 10.9375 -4.347656 10.816406 -3.601562 10.578125 -2.9375 C 10.347656 -2.28125 10.015625 -1.71875 9.578125 -1.25 C 9.140625 -0.78125 8.613281 -0.421875 8 -0.171875 C 7.382812 0.0664062 6.695312 0.1875 5.9375 0.1875 Z M 5.9375 -1.328125 C 6.550781 -1.328125 7.085938 -1.472656 7.546875 -1.765625 C 8.003906 -2.066406 8.359375 -2.5 8.609375 -3.0625 C 8.859375 -3.632812 8.984375 -4.335938 8.984375 -5.171875 C 8.984375 -6.410156 8.707031 -7.351562 8.15625 -8 C 7.601562 -8.65625 6.863281 -8.984375 5.9375 -8.984375 C 5.320312 -8.984375 4.785156 -8.835938 4.328125 -8.546875 C 3.867188 -8.253906 3.507812 -7.828125 3.25 -7.265625 C 3 -6.703125 2.875 -6.003906 2.875 -5.171875 C 2.875 -3.929688 3.15625 -2.976562 3.71875 -2.3125 C 4.28125 -1.65625 5.019531 -1.328125 5.9375 -1.328125 Z M 5.9375 -1.328125 "/></g></g></g><g fill="#545454" fill-opacity="1"><g transform="translate(508.898622, 247.227613)"><g><path d="M 5.234375 0.1875 C 4.398438 0.1875 3.703125 0.0351562 3.140625 -0.265625 C 2.585938 -0.578125 2.175781 -1.035156 1.90625 -1.640625 C 1.632812 -2.253906 1.5 -3.019531 1.5 -3.9375 L 1.5 -9.484375 C 1.5 -9.816406 1.578125 -10.0625 1.734375 -10.21875 C 1.898438 -10.382812 2.140625 -10.46875 2.453125 -10.46875 C 2.765625 -10.46875 3.003906 -10.382812 3.171875 -10.21875 C 3.347656 -10.0625 3.4375 -9.816406 3.4375 -9.484375 L 3.4375 -3.9375 C 3.4375 -3.0625 3.609375 -2.414062 3.953125 -2 C 4.304688 -1.582031 4.867188 -1.375 5.640625 -1.375 C 6.484375 -1.375 7.171875 -1.65625 7.703125 -2.21875 C 8.234375 -2.789062 8.5 -3.539062 8.5 -4.46875 L 8.5 -9.484375 C 8.5 -9.816406 8.578125 -10.0625 8.734375 -10.21875 C 8.898438 -10.382812 9.140625 -10.46875 9.453125 -10.46875 C 9.765625 -10.46875 10.003906 -10.382812 10.171875 -10.21875 C 10.335938 -10.0625 10.421875 -9.816406 10.421875 -9.484375 L 10.421875 -0.84375 C 10.421875 -0.1875 10.109375 0.140625 9.484375 0.140625 C 9.179688 0.140625 8.945312 0.0546875 8.78125 -0.109375 C 8.613281 -0.273438 8.53125 -0.519531 8.53125 -0.84375 L 8.53125 -2.6875 L 8.8125 -2.328125 C 8.53125 -1.515625 8.070312 -0.890625 7.4375 -0.453125 C 6.8125 -0.0234375 6.078125 0.1875 5.234375 0.1875 Z M 5.234375 0.1875 "/></g></g></g><g fill="#545454" fill-opacity="1"><g transform="translate(520.870561, 247.227613)"><g><path d="M 2.546875 0.140625 C 2.222656 0.140625 1.972656 0.0546875 1.796875 -0.109375 C 1.628906 -0.273438 1.546875 -0.519531 1.546875 -0.84375 L 1.546875 -9.484375 C 1.546875 -9.816406 1.628906 -10.0625 1.796875 -10.21875 C 1.972656 -10.382812 2.207031 -10.46875 2.5 -10.46875 C 2.789062 -10.46875 3.019531 -10.382812 3.1875 -10.21875 C 3.351562 -10.0625 3.4375 -9.816406 3.4375 -9.484375 L 3.4375 -7.859375 L 3.21875 -7.859375 C 3.445312 -8.703125 3.867188 -9.34375 4.484375 -9.78125 C 5.109375 -10.226562 5.894531 -10.476562 6.84375 -10.53125 C 7.070312 -10.539062 7.253906 -10.484375 7.390625 -10.359375 C 7.535156 -10.242188 7.613281 -10.046875 7.625 -9.765625 C 7.644531 -9.492188 7.582031 -9.273438 7.4375 -9.109375 C 7.289062 -8.953125 7.070312 -8.859375 6.78125 -8.828125 L 6.40625 -8.8125 C 5.46875 -8.71875 4.75 -8.414062 4.25 -7.90625 C 3.75 -7.394531 3.5 -6.695312 3.5 -5.8125 L 3.5 -0.84375 C 3.5 -0.519531 3.414062 -0.273438 3.25 -0.109375 C 3.09375 0.0546875 2.859375 0.140625 2.546875 0.140625 Z M 2.546875 0.140625 "/></g></g></g><g fill="#545454" fill-opacity="1"><g transform="translate(528.604648, 247.227613)"><g/></g></g><g fill="#545454" fill-opacity="1"><g transform="translate(534.135049, 247.227613)"><g><path d="M 5.828125 0.1875 C 4.992188 0.1875 4.296875 0.0390625 3.734375 -0.25 C 3.179688 -0.550781 2.765625 -0.984375 2.484375 -1.546875 C 2.210938 -2.109375 2.078125 -2.800781 2.078125 -3.625 L 2.078125 -8.828125 L 0.71875 -8.828125 C 0.46875 -8.828125 0.269531 -8.894531 0.125 -9.03125 C -0.0078125 -9.164062 -0.078125 -9.347656 -0.078125 -9.578125 C -0.078125 -9.816406 -0.0078125 -10 0.125 -10.125 C 0.269531 -10.25 0.46875 -10.3125 0.71875 -10.3125 L 2.078125 -10.3125 L 2.078125 -12.625 C 2.078125 -12.945312 2.160156 -13.191406 2.328125 -13.359375 C 2.492188 -13.523438 2.734375 -13.609375 3.046875 -13.609375 C 3.359375 -13.609375 3.59375 -13.523438 3.75 -13.359375 C 3.914062 -13.191406 4 -12.945312 4 -12.625 L 4 -10.3125 L 6.5625 -10.3125 C 6.832031 -10.3125 7.035156 -10.25 7.171875 -10.125 C 7.316406 -10 7.390625 -9.816406 7.390625 -9.578125 C 7.390625 -9.347656 7.316406 -9.164062 7.171875 -9.03125 C 7.035156 -8.894531 6.832031 -8.828125 6.5625 -8.828125 L 4 -8.828125 L 4 -3.796875 C 4 -3.015625 4.160156 -2.425781 4.484375 -2.03125 C 4.816406 -1.632812 5.359375 -1.4375 6.109375 -1.4375 C 6.367188 -1.4375 6.59375 -1.460938 6.78125 -1.515625 C 6.96875 -1.566406 7.128906 -1.59375 7.265625 -1.59375 C 7.390625 -1.601562 7.5 -1.554688 7.59375 -1.453125 C 7.6875 -1.359375 7.734375 -1.175781 7.734375 -0.90625 C 7.734375 -0.707031 7.703125 -0.523438 7.640625 -0.359375 C 7.578125 -0.203125 7.453125 -0.0976562 7.265625 -0.046875 C 7.097656 0.015625 6.875 0.0664062 6.59375 0.109375 C 6.3125 0.160156 6.054688 0.1875 5.828125 0.1875 Z M 5.828125 0.1875 "/></g></g></g><g fill="#545454" fill-opacity="1"><g transform="translate(541.72081, 247.227613)"><g><path d="M 2.5 0.109375 C 2.207031 0.109375 1.972656 0.0195312 1.796875 -0.15625 C 1.628906 -0.34375 1.546875 -0.601562 1.546875 -0.9375 L 1.546875 -9.390625 C 1.546875 -9.722656 1.628906 -9.976562 1.796875 -10.15625 C 1.972656 -10.332031 2.207031 -10.421875 2.5 -10.421875 C 2.8125 -10.421875 3.050781 -10.332031 3.21875 -10.15625 C 3.382812 -9.976562 3.46875 -9.722656 3.46875 -9.390625 L 3.46875 -0.9375 C 3.46875 -0.601562 3.382812 -0.34375 3.21875 -0.15625 C 3.0625 0.0195312 2.820312 0.109375 2.5 0.109375 Z M 2.5 -12.71875 C 2.113281 -12.71875 1.8125 -12.816406 1.59375 -13.015625 C 1.375 -13.222656 1.265625 -13.492188 1.265625 -13.828125 C 1.265625 -14.203125 1.375 -14.484375 1.59375 -14.671875 C 1.8125 -14.859375 2.113281 -14.953125 2.5 -14.953125 C 2.90625 -14.953125 3.210938 -14.859375 3.421875 -14.671875 C 3.628906 -14.484375 3.734375 -14.203125 3.734375 -13.828125 C 3.734375 -13.492188 3.628906 -13.222656 3.421875 -13.015625 C 3.210938 -12.816406 2.90625 -12.71875 2.5 -12.71875 Z M 2.5 -12.71875 "/></g></g></g><g fill="#545454" fill-opacity="1"><g transform="translate(546.742669, 247.227613)"><g><path d="M 2.546875 0.140625 C 2.242188 0.140625 2.007812 0.0546875 1.84375 -0.109375 C 1.675781 -0.273438 1.59375 -0.519531 1.59375 -0.84375 L 1.59375 -9.484375 C 1.59375 -9.816406 1.675781 -10.0625 1.84375 -10.21875 C 2.007812 -10.382812 2.242188 -10.46875 2.546875 -10.46875 C 2.835938 -10.46875 3.0625 -10.382812 3.21875 -10.21875 C 3.382812 -10.0625 3.46875 -9.816406 3.46875 -9.484375 L 3.46875 -7.6875 L 3.234375 -8.078125 C 3.503906 -8.847656 3.9375 -9.445312 4.53125 -9.875 C 5.132812 -10.300781 5.851562 -10.515625 6.6875 -10.515625 C 7.570312 -10.515625 8.28125 -10.304688 8.8125 -9.890625 C 9.351562 -9.472656 9.710938 -8.835938 9.890625 -7.984375 L 9.59375 -7.984375 C 9.851562 -8.765625 10.3125 -9.378906 10.96875 -9.828125 C 11.625 -10.285156 12.390625 -10.515625 13.265625 -10.515625 C 14.035156 -10.515625 14.671875 -10.359375 15.171875 -10.046875 C 15.679688 -9.742188 16.0625 -9.289062 16.3125 -8.6875 C 16.570312 -8.09375 16.703125 -7.332031 16.703125 -6.40625 L 16.703125 -0.84375 C 16.703125 -0.519531 16.613281 -0.273438 16.4375 -0.109375 C 16.269531 0.0546875 16.039062 0.140625 15.75 0.140625 C 15.4375 0.140625 15.191406 0.0546875 15.015625 -0.109375 C 14.847656 -0.273438 14.765625 -0.519531 14.765625 -0.84375 L 14.765625 -6.3125 C 14.765625 -7.21875 14.609375 -7.878906 14.296875 -8.296875 C 13.984375 -8.722656 13.460938 -8.9375 12.734375 -8.9375 C 11.929688 -8.9375 11.289062 -8.65625 10.8125 -8.09375 C 10.34375 -7.539062 10.109375 -6.78125 10.109375 -5.8125 L 10.109375 -0.84375 C 10.109375 -0.519531 10.023438 -0.273438 9.859375 -0.109375 C 9.703125 0.0546875 9.46875 0.140625 9.15625 0.140625 C 8.84375 0.140625 8.597656 0.0546875 8.421875 -0.109375 C 8.253906 -0.273438 8.171875 -0.519531 8.171875 -0.84375 L 8.171875 -6.3125 C 8.171875 -7.21875 8.015625 -7.878906 7.703125 -8.296875 C 7.398438 -8.722656 6.878906 -8.9375 6.140625 -8.9375 C 5.335938 -8.9375 4.695312 -8.65625 4.21875 -8.09375 C 3.75 -7.539062 3.515625 -6.78125 3.515625 -5.8125 L 3.515625 -0.84375 C 3.515625 -0.1875 3.191406 0.140625 2.546875 0.140625 Z M 2.546875 0.140625 "/></g></g></g><g fill="#545454" fill-opacity="1"><g transform="translate(564.986635, 247.227613)"><g><path d="M 6.3125 0.1875 C 5.195312 0.1875 4.238281 -0.0234375 3.4375 -0.453125 C 2.644531 -0.890625 2.03125 -1.503906 1.59375 -2.296875 C 1.15625 -3.097656 0.9375 -4.039062 0.9375 -5.125 C 0.9375 -6.195312 1.148438 -7.132812 1.578125 -7.9375 C 2.003906 -8.75 2.59375 -9.378906 3.34375 -9.828125 C 4.101562 -10.285156 4.972656 -10.515625 5.953125 -10.515625 C 6.640625 -10.515625 7.265625 -10.394531 7.828125 -10.15625 C 8.390625 -9.925781 8.867188 -9.59375 9.265625 -9.15625 C 9.660156 -8.71875 9.957031 -8.179688 10.15625 -7.546875 C 10.363281 -6.921875 10.46875 -6.210938 10.46875 -5.421875 C 10.46875 -5.191406 10.398438 -5.015625 10.265625 -4.890625 C 10.128906 -4.773438 9.9375 -4.71875 9.6875 -4.71875 L 2.4375 -4.71875 L 2.4375 -5.953125 L 9.203125 -5.953125 L 8.828125 -5.65625 C 8.828125 -6.394531 8.71875 -7.019531 8.5 -7.53125 C 8.28125 -8.050781 7.960938 -8.441406 7.546875 -8.703125 C 7.128906 -8.972656 6.613281 -9.109375 6 -9.109375 C 5.320312 -9.109375 4.738281 -8.945312 4.25 -8.625 C 3.769531 -8.3125 3.40625 -7.867188 3.15625 -7.296875 C 2.90625 -6.722656 2.78125 -6.0625 2.78125 -5.3125 L 2.78125 -5.1875 C 2.78125 -3.914062 3.082031 -2.953125 3.6875 -2.296875 C 4.289062 -1.648438 5.164062 -1.328125 6.3125 -1.328125 C 6.757812 -1.328125 7.21875 -1.382812 7.6875 -1.5 C 8.164062 -1.613281 8.625 -1.820312 9.0625 -2.125 C 9.28125 -2.25 9.476562 -2.304688 9.65625 -2.296875 C 9.832031 -2.285156 9.972656 -2.226562 10.078125 -2.125 C 10.191406 -2.019531 10.265625 -1.894531 10.296875 -1.75 C 10.328125 -1.601562 10.304688 -1.441406 10.234375 -1.265625 C 10.160156 -1.097656 10.023438 -0.953125 9.828125 -0.828125 C 9.359375 -0.503906 8.800781 -0.253906 8.15625 -0.078125 C 7.519531 0.0976562 6.90625 0.1875 6.3125 0.1875 Z M 6.3125 0.1875 "/></g></g></g><g fill="#545454" fill-opacity="1"><g transform="translate(702.148676, 438.79997)"><g><path d="M 1.734375 0.140625 C 1.398438 0.140625 1.15625 0.0351562 1 -0.171875 C 0.851562 -0.378906 0.8125 -0.679688 0.875 -1.078125 L 2.921875 -14.0625 C 2.984375 -14.414062 3.113281 -14.671875 3.3125 -14.828125 C 3.519531 -14.992188 3.800781 -15.078125 4.15625 -15.078125 C 4.476562 -15.078125 4.71875 -14.96875 4.875 -14.75 C 5.03125 -14.53125 5.078125 -14.222656 5.015625 -13.828125 L 3.75 -5.828125 L 3.796875 -5.828125 L 8.4375 -9.875 C 8.65625 -10.082031 8.859375 -10.234375 9.046875 -10.328125 C 9.234375 -10.429688 9.445312 -10.484375 9.6875 -10.484375 C 9.96875 -10.484375 10.175781 -10.398438 10.3125 -10.234375 C 10.445312 -10.078125 10.5 -9.878906 10.46875 -9.640625 C 10.4375 -9.398438 10.304688 -9.179688 10.078125 -8.984375 L 5.34375 -4.78125 L 5.375 -5.828125 L 9.28125 -1.375 C 9.476562 -1.132812 9.566406 -0.894531 9.546875 -0.65625 C 9.535156 -0.425781 9.445312 -0.234375 9.28125 -0.078125 C 9.125 0.0664062 8.910156 0.140625 8.640625 0.140625 C 8.347656 0.140625 8.113281 0.078125 7.9375 -0.046875 C 7.757812 -0.171875 7.554688 -0.375 7.328125 -0.65625 L 3.625 -4.8125 L 3.578125 -4.8125 L 2.96875 -0.875 C 2.863281 -0.195312 2.453125 0.140625 1.734375 0.140625 Z M 1.734375 0.140625 "/></g></g></g><g fill="#545454" fill-opacity="1"><g transform="translate(713.082346, 438.79997)"><g><path d="M 4.046875 0.1875 C 2.960938 0.1875 2.175781 -0.125 1.6875 -0.75 C 1.195312 -1.375 1.046875 -2.296875 1.234375 -3.515625 L 2.921875 -14.03125 C 2.984375 -14.382812 3.113281 -14.644531 3.3125 -14.8125 C 3.519531 -14.988281 3.800781 -15.078125 4.15625 -15.078125 C 4.476562 -15.078125 4.71875 -14.972656 4.875 -14.765625 C 5.03125 -14.554688 5.078125 -14.242188 5.015625 -13.828125 L 3.375 -3.53125 C 3.257812 -2.84375 3.3125 -2.34375 3.53125 -2.03125 C 3.757812 -1.71875 4.132812 -1.5625 4.65625 -1.5625 C 4.832031 -1.5625 4.972656 -1.578125 5.078125 -1.609375 C 5.179688 -1.640625 5.273438 -1.65625 5.359375 -1.65625 C 5.472656 -1.65625 5.5625 -1.609375 5.625 -1.515625 C 5.695312 -1.429688 5.734375 -1.269531 5.734375 -1.03125 C 5.734375 -0.707031 5.660156 -0.453125 5.515625 -0.265625 C 5.378906 -0.0859375 5.203125 0.0234375 4.984375 0.078125 C 4.867188 0.117188 4.71875 0.144531 4.53125 0.15625 C 4.351562 0.175781 4.191406 0.1875 4.046875 0.1875 Z M 4.046875 0.1875 "/></g></g></g><g fill="#545454" fill-opacity="1"><g transform="translate(719.566265, 438.79997)"><g><path d="M 4.15625 0.1875 C 3.539062 0.1875 2.972656 0.0507812 2.453125 -0.21875 C 1.929688 -0.5 1.515625 -0.875 1.203125 -1.34375 C 0.890625 -1.820312 0.734375 -2.351562 0.734375 -2.9375 C 0.734375 -3.675781 0.9375 -4.269531 1.34375 -4.71875 C 1.75 -5.175781 2.378906 -5.515625 3.234375 -5.734375 C 4.097656 -5.953125 5.207031 -6.0625 6.5625 -6.0625 L 8.265625 -6.0625 L 8.078125 -4.75 L 6.765625 -4.75 C 5.785156 -4.75 5.007812 -4.695312 4.4375 -4.59375 C 3.863281 -4.5 3.457031 -4.328125 3.21875 -4.078125 C 2.976562 -3.828125 2.859375 -3.492188 2.859375 -3.078125 C 2.859375 -2.503906 3.046875 -2.066406 3.421875 -1.765625 C 3.796875 -1.472656 4.242188 -1.328125 4.765625 -1.328125 C 5.242188 -1.328125 5.6875 -1.429688 6.09375 -1.640625 C 6.507812 -1.859375 6.859375 -2.164062 7.140625 -2.5625 C 7.429688 -2.96875 7.625 -3.457031 7.71875 -4.03125 L 8.109375 -6.5625 C 8.242188 -7.3125 8.144531 -7.882812 7.8125 -8.28125 C 7.476562 -8.675781 6.882812 -8.875 6.03125 -8.875 C 5.539062 -8.875 5.066406 -8.820312 4.609375 -8.71875 C 4.148438 -8.625 3.6875 -8.457031 3.21875 -8.21875 C 3.007812 -8.101562 2.8125 -8.0625 2.625 -8.09375 C 2.445312 -8.132812 2.300781 -8.210938 2.1875 -8.328125 C 2.070312 -8.453125 2.003906 -8.597656 1.984375 -8.765625 C 1.972656 -8.941406 2.019531 -9.113281 2.125 -9.28125 C 2.226562 -9.445312 2.410156 -9.59375 2.671875 -9.71875 C 3.234375 -10.007812 3.832031 -10.21875 4.46875 -10.34375 C 5.101562 -10.46875 5.710938 -10.53125 6.296875 -10.53125 C 7.328125 -10.53125 8.140625 -10.335938 8.734375 -9.953125 C 9.335938 -9.578125 9.75 -9.050781 9.96875 -8.375 C 10.1875 -7.695312 10.222656 -6.910156 10.078125 -6.015625 L 9.28125 -0.90625 C 9.238281 -0.550781 9.113281 -0.285156 8.90625 -0.109375 C 8.707031 0.0546875 8.441406 0.140625 8.109375 0.140625 C 7.804688 0.140625 7.578125 0.0390625 7.421875 -0.15625 C 7.265625 -0.363281 7.210938 -0.65625 7.265625 -1.03125 L 7.5 -2.578125 L 7.671875 -2.265625 C 7.484375 -1.710938 7.203125 -1.25 6.828125 -0.875 C 6.453125 -0.5 6.035156 -0.226562 5.578125 -0.0625 C 5.117188 0.101562 4.644531 0.1875 4.15625 0.1875 Z M 4.15625 0.1875 "/></g></g></g><g fill="#545454" fill-opacity="1"><g transform="translate(730.944911, 438.79997)"><g><path d="M 1.734375 0.140625 C 1.398438 0.140625 1.15625 0.0351562 1 -0.171875 C 0.84375 -0.378906 0.789062 -0.675781 0.84375 -1.0625 L 2.1875 -9.453125 C 2.238281 -9.804688 2.363281 -10.066406 2.5625 -10.234375 C 2.769531 -10.398438 3.046875 -10.484375 3.390625 -10.484375 C 3.710938 -10.484375 3.953125 -10.378906 4.109375 -10.171875 C 4.265625 -9.972656 4.316406 -9.675781 4.265625 -9.28125 L 4.03125 -7.859375 L 3.8125 -7.859375 C 4.09375 -8.691406 4.570312 -9.335938 5.25 -9.796875 C 5.925781 -10.253906 6.703125 -10.503906 7.578125 -10.546875 C 7.929688 -10.566406 8.164062 -10.519531 8.28125 -10.40625 C 8.40625 -10.289062 8.46875 -10.09375 8.46875 -9.8125 C 8.46875 -9.445312 8.382812 -9.175781 8.21875 -9 C 8.050781 -8.832031 7.773438 -8.726562 7.390625 -8.6875 L 6.890625 -8.625 C 5.835938 -8.519531 5.085938 -8.207031 4.640625 -7.6875 C 4.191406 -7.164062 3.890625 -6.453125 3.734375 -5.546875 L 2.984375 -0.875 C 2.941406 -0.53125 2.8125 -0.273438 2.59375 -0.109375 C 2.382812 0.0546875 2.097656 0.140625 1.734375 0.140625 Z M 1.734375 0.140625 "/></g></g></g><g fill="#545454" fill-opacity="1"><g transform="translate(738.848508, 438.79997)"><g><path d="M 1.71875 0.140625 C 1.394531 0.140625 1.15625 0.03125 1 -0.1875 C 0.84375 -0.40625 0.789062 -0.710938 0.84375 -1.109375 L 2.1875 -9.421875 C 2.238281 -9.773438 2.363281 -10.039062 2.5625 -10.21875 C 2.769531 -10.394531 3.050781 -10.484375 3.40625 -10.484375 C 3.738281 -10.484375 3.976562 -10.375 4.125 -10.15625 C 4.28125 -9.9375 4.332031 -9.628906 4.28125 -9.234375 L 2.9375 -0.90625 C 2.882812 -0.550781 2.757812 -0.285156 2.5625 -0.109375 C 2.363281 0.0546875 2.082031 0.140625 1.71875 0.140625 Z M 3.765625 -12.65625 C 3.367188 -12.65625 3.070312 -12.753906 2.875 -12.953125 C 2.675781 -13.148438 2.59375 -13.421875 2.625 -13.765625 C 2.664062 -14.191406 2.820312 -14.515625 3.09375 -14.734375 C 3.363281 -14.953125 3.71875 -15.0625 4.15625 -15.0625 C 4.5625 -15.0625 4.863281 -14.960938 5.0625 -14.765625 C 5.257812 -14.566406 5.34375 -14.289062 5.3125 -13.9375 C 5.269531 -13.519531 5.117188 -13.203125 4.859375 -12.984375 C 4.597656 -12.765625 4.234375 -12.65625 3.765625 -12.65625 Z M 3.765625 -12.65625 "/></g></g></g><g fill="#545454" fill-opacity="1"><g transform="translate(743.997507, 438.79997)"><g><path d="M 5.234375 0.1875 C 4.390625 0.1875 3.6875 0.0234375 3.125 -0.296875 C 2.5625 -0.617188 2.171875 -1.066406 1.953125 -1.640625 C 1.734375 -2.222656 1.691406 -2.90625 1.828125 -3.6875 L 2.625 -8.6875 L 1.484375 -8.6875 C 1.203125 -8.6875 0.976562 -8.75 0.8125 -8.875 C 0.65625 -9 0.578125 -9.171875 0.578125 -9.390625 C 0.578125 -9.703125 0.675781 -9.9375 0.875 -10.09375 C 1.082031 -10.257812 1.347656 -10.34375 1.671875 -10.34375 L 2.875 -10.34375 L 3.234375 -12.609375 C 3.296875 -12.941406 3.425781 -13.191406 3.625 -13.359375 C 3.820312 -13.523438 4.082031 -13.609375 4.40625 -13.609375 C 4.769531 -13.609375 5.03125 -13.503906 5.1875 -13.296875 C 5.34375 -13.085938 5.394531 -12.796875 5.34375 -12.421875 L 5.015625 -10.34375 L 7.359375 -10.34375 C 7.648438 -10.34375 7.875 -10.285156 8.03125 -10.171875 C 8.1875 -10.054688 8.265625 -9.878906 8.265625 -9.640625 C 8.265625 -9.367188 8.175781 -9.140625 8 -8.953125 C 7.820312 -8.773438 7.570312 -8.6875 7.25 -8.6875 L 4.765625 -8.6875 L 3.984375 -3.859375 C 3.859375 -3.054688 3.945312 -2.476562 4.25 -2.125 C 4.5625 -1.769531 5.023438 -1.59375 5.640625 -1.59375 C 5.898438 -1.59375 6.113281 -1.613281 6.28125 -1.65625 C 6.445312 -1.707031 6.59375 -1.734375 6.71875 -1.734375 C 6.882812 -1.734375 7.003906 -1.6875 7.078125 -1.59375 C 7.160156 -1.507812 7.203125 -1.351562 7.203125 -1.125 C 7.203125 -0.738281 7.140625 -0.46875 7.015625 -0.3125 C 6.898438 -0.15625 6.726562 -0.046875 6.5 0.015625 C 6.34375 0.078125 6.140625 0.117188 5.890625 0.140625 C 5.648438 0.171875 5.429688 0.1875 5.234375 0.1875 Z M 5.234375 0.1875 "/></g></g></g><g fill="#545454" fill-opacity="1"><g transform="translate(751.731594, 438.79997)"><g><path d="M 1.71875 0.140625 C 1.394531 0.140625 1.15625 0.03125 1 -0.1875 C 0.84375 -0.40625 0.789062 -0.710938 0.84375 -1.109375 L 2.1875 -9.421875 C 2.238281 -9.773438 2.363281 -10.039062 2.5625 -10.21875 C 2.769531 -10.394531 3.050781 -10.484375 3.40625 -10.484375 C 3.738281 -10.484375 3.976562 -10.375 4.125 -10.15625 C 4.28125 -9.9375 4.332031 -9.628906 4.28125 -9.234375 L 2.9375 -0.90625 C 2.882812 -0.550781 2.757812 -0.285156 2.5625 -0.109375 C 2.363281 0.0546875 2.082031 0.140625 1.71875 0.140625 Z M 3.765625 -12.65625 C 3.367188 -12.65625 3.070312 -12.753906 2.875 -12.953125 C 2.675781 -13.148438 2.59375 -13.421875 2.625 -13.765625 C 2.664062 -14.191406 2.820312 -14.515625 3.09375 -14.734375 C 3.363281 -14.953125 3.71875 -15.0625 4.15625 -15.0625 C 4.5625 -15.0625 4.863281 -14.960938 5.0625 -14.765625 C 5.257812 -14.566406 5.34375 -14.289062 5.3125 -13.9375 C 5.269531 -13.519531 5.117188 -13.203125 4.859375 -12.984375 C 4.597656 -12.765625 4.234375 -12.65625 3.765625 -12.65625 Z M 3.765625 -12.65625 "/></g></g></g><g fill="#545454" fill-opacity="1"><g transform="translate(756.880593, 438.79997)"><g><path d="M 1.921875 0.078125 C 1.515625 0.078125 1.1875 -0.046875 0.9375 -0.296875 C 0.695312 -0.546875 0.578125 -0.867188 0.578125 -1.265625 C 0.578125 -1.660156 0.695312 -1.984375 0.9375 -2.234375 C 1.1875 -2.484375 1.515625 -2.609375 1.921875 -2.609375 C 2.347656 -2.609375 2.675781 -2.484375 2.90625 -2.234375 C 3.144531 -1.984375 3.265625 -1.660156 3.265625 -1.265625 C 3.265625 -0.867188 3.144531 -0.546875 2.90625 -0.296875 C 2.675781 -0.046875 2.347656 0.078125 1.921875 0.078125 Z M 1.921875 0.078125 "/></g></g></g><g fill="#545454" fill-opacity="1"><g transform="translate(761.902452, 438.79997)"><g><path d="M 5.53125 0.1875 C 4.550781 0.1875 3.710938 0.00390625 3.015625 -0.359375 C 2.328125 -0.722656 1.796875 -1.25 1.421875 -1.9375 C 1.054688 -2.632812 0.875 -3.457031 0.875 -4.40625 C 0.875 -5.3125 1.007812 -6.132812 1.28125 -6.875 C 1.550781 -7.613281 1.9375 -8.257812 2.4375 -8.8125 C 2.945312 -9.363281 3.539062 -9.785156 4.21875 -10.078125 C 4.894531 -10.378906 5.632812 -10.53125 6.4375 -10.53125 C 7.414062 -10.53125 8.25 -10.34375 8.9375 -9.96875 C 9.632812 -9.59375 10.171875 -9.0625 10.546875 -8.375 C 10.921875 -7.695312 11.109375 -6.882812 11.109375 -5.9375 C 11.109375 -5.03125 10.96875 -4.203125 10.6875 -3.453125 C 10.414062 -2.703125 10.023438 -2.054688 9.515625 -1.515625 C 9.015625 -0.972656 8.425781 -0.550781 7.75 -0.25 C 7.070312 0.0390625 6.332031 0.1875 5.53125 0.1875 Z M 5.578125 -1.46875 C 6.304688 -1.46875 6.914062 -1.671875 7.40625 -2.078125 C 7.90625 -2.484375 8.285156 -3.03125 8.546875 -3.71875 C 8.804688 -4.40625 8.9375 -5.164062 8.9375 -6 C 8.9375 -6.925781 8.707031 -7.632812 8.25 -8.125 C 7.800781 -8.613281 7.1875 -8.859375 6.40625 -8.859375 C 5.675781 -8.859375 5.0625 -8.65625 4.5625 -8.25 C 4.0625 -7.851562 3.679688 -7.3125 3.421875 -6.625 C 3.160156 -5.9375 3.03125 -5.171875 3.03125 -4.328125 C 3.03125 -3.398438 3.253906 -2.691406 3.703125 -2.203125 C 4.160156 -1.710938 4.785156 -1.46875 5.578125 -1.46875 Z M 5.578125 -1.46875 "/></g></g></g><g fill="#545454" fill-opacity="1"><g transform="translate(773.874391, 438.79997)"><g><path d="M 1.734375 0.140625 C 1.398438 0.140625 1.15625 0.0351562 1 -0.171875 C 0.84375 -0.378906 0.789062 -0.675781 0.84375 -1.0625 L 2.1875 -9.453125 C 2.238281 -9.804688 2.363281 -10.066406 2.5625 -10.234375 C 2.769531 -10.398438 3.046875 -10.484375 3.390625 -10.484375 C 3.710938 -10.484375 3.953125 -10.378906 4.109375 -10.171875 C 4.265625 -9.972656 4.316406 -9.675781 4.265625 -9.28125 L 4.03125 -7.859375 L 3.8125 -7.859375 C 4.09375 -8.691406 4.570312 -9.335938 5.25 -9.796875 C 5.925781 -10.253906 6.703125 -10.503906 7.578125 -10.546875 C 7.929688 -10.566406 8.164062 -10.519531 8.28125 -10.40625 C 8.40625 -10.289062 8.46875 -10.09375 8.46875 -9.8125 C 8.46875 -9.445312 8.382812 -9.175781 8.21875 -9 C 8.050781 -8.832031 7.773438 -8.726562 7.390625 -8.6875 L 6.890625 -8.625 C 5.835938 -8.519531 5.085938 -8.207031 4.640625 -7.6875 C 4.191406 -7.164062 3.890625 -6.453125 3.734375 -5.546875 L 2.984375 -0.875 C 2.941406 -0.53125 2.8125 -0.273438 2.59375 -0.109375 C 2.382812 0.0546875 2.097656 0.140625 1.734375 0.140625 Z M 1.734375 0.140625 "/></g></g></g><g fill="#545454" fill-opacity="1"><g transform="translate(781.777988, 438.79997)"><g><path d="M 5.34375 4 C 4.507812 4 3.722656 3.894531 2.984375 3.6875 C 2.253906 3.488281 1.601562 3.210938 1.03125 2.859375 C 0.832031 2.742188 0.703125 2.601562 0.640625 2.4375 C 0.578125 2.269531 0.566406 2.097656 0.609375 1.921875 C 0.648438 1.753906 0.726562 1.609375 0.84375 1.484375 C 0.96875 1.367188 1.117188 1.296875 1.296875 1.265625 C 1.472656 1.242188 1.671875 1.296875 1.890625 1.421875 C 2.347656 1.703125 2.835938 1.925781 3.359375 2.09375 C 3.890625 2.269531 4.453125 2.359375 5.046875 2.359375 C 5.929688 2.359375 6.644531 2.144531 7.1875 1.71875 C 7.738281 1.289062 8.085938 0.617188 8.234375 -0.296875 L 8.609375 -2.515625 L 8.765625 -2.5 C 8.429688 -1.789062 7.929688 -1.238281 7.265625 -0.84375 C 6.597656 -0.445312 5.84375 -0.25 5 -0.25 C 4.164062 -0.25 3.441406 -0.414062 2.828125 -0.75 C 2.210938 -1.09375 1.734375 -1.582031 1.390625 -2.21875 C 1.046875 -2.851562 0.875 -3.609375 0.875 -4.484375 C 0.875 -5.273438 0.992188 -6.035156 1.234375 -6.765625 C 1.472656 -7.492188 1.816406 -8.140625 2.265625 -8.703125 C 2.710938 -9.273438 3.257812 -9.722656 3.90625 -10.046875 C 4.550781 -10.367188 5.285156 -10.53125 6.109375 -10.53125 C 6.941406 -10.53125 7.675781 -10.328125 8.3125 -9.921875 C 8.945312 -9.523438 9.382812 -8.921875 9.625 -8.109375 L 9.390625 -7.6875 L 9.65625 -9.453125 C 9.71875 -9.804688 9.847656 -10.066406 10.046875 -10.234375 C 10.253906 -10.398438 10.53125 -10.484375 10.875 -10.484375 C 11.207031 -10.484375 11.441406 -10.375 11.578125 -10.15625 C 11.722656 -9.9375 11.769531 -9.628906 11.71875 -9.234375 L 10.3125 -0.40625 C 10.09375 1.050781 9.566406 2.148438 8.734375 2.890625 C 7.910156 3.628906 6.78125 4 5.34375 4 Z M 5.609375 -1.921875 C 6.347656 -1.921875 6.96875 -2.117188 7.46875 -2.515625 C 7.976562 -2.910156 8.363281 -3.4375 8.625 -4.09375 C 8.894531 -4.75 9.03125 -5.453125 9.03125 -6.203125 C 9.03125 -7.035156 8.800781 -7.6875 8.34375 -8.15625 C 7.894531 -8.625 7.253906 -8.859375 6.421875 -8.859375 C 5.703125 -8.859375 5.085938 -8.660156 4.578125 -8.265625 C 4.066406 -7.867188 3.679688 -7.34375 3.421875 -6.6875 C 3.160156 -6.039062 3.03125 -5.34375 3.03125 -4.59375 C 3.03125 -3.75 3.253906 -3.09375 3.703125 -2.625 C 4.160156 -2.15625 4.796875 -1.921875 5.609375 -1.921875 Z M 5.609375 -1.921875 "/></g></g></g><g fill="#545454" fill-opacity="1"><g transform="translate(407.500409, 384.501637)"><g><path d="M 6.953125 0.1875 C 6.015625 0.1875 5.210938 -0.0390625 4.546875 -0.5 C 3.890625 -0.96875 3.445312 -1.597656 3.21875 -2.390625 L 3.453125 -2.71875 L 3.453125 -0.84375 C 3.453125 -0.519531 3.367188 -0.273438 3.203125 -0.109375 C 3.046875 0.0546875 2.8125 0.140625 2.5 0.140625 C 2.207031 0.140625 1.972656 0.0546875 1.796875 -0.109375 C 1.628906 -0.273438 1.546875 -0.519531 1.546875 -0.84375 L 1.546875 -14.109375 C 1.546875 -14.429688 1.628906 -14.671875 1.796875 -14.828125 C 1.972656 -14.992188 2.207031 -15.078125 2.5 -15.078125 C 2.8125 -15.078125 3.050781 -14.992188 3.21875 -14.828125 C 3.382812 -14.671875 3.46875 -14.429688 3.46875 -14.109375 L 3.46875 -7.984375 L 3.234375 -7.984375 C 3.460938 -8.742188 3.910156 -9.351562 4.578125 -9.8125 C 5.242188 -10.28125 6.035156 -10.515625 6.953125 -10.515625 C 7.867188 -10.515625 8.664062 -10.296875 9.34375 -9.859375 C 10.03125 -9.429688 10.5625 -8.816406 10.9375 -8.015625 C 11.3125 -7.222656 11.5 -6.273438 11.5 -5.171875 C 11.5 -4.078125 11.304688 -3.125 10.921875 -2.3125 C 10.546875 -1.507812 10.019531 -0.890625 9.34375 -0.453125 C 8.664062 -0.0234375 7.867188 0.1875 6.953125 0.1875 Z M 6.5 -1.328125 C 7.113281 -1.328125 7.648438 -1.472656 8.109375 -1.765625 C 8.566406 -2.066406 8.921875 -2.5 9.171875 -3.0625 C 9.429688 -3.632812 9.5625 -4.335938 9.5625 -5.171875 C 9.5625 -6.410156 9.285156 -7.351562 8.734375 -8 C 8.179688 -8.65625 7.4375 -8.984375 6.5 -8.984375 C 5.882812 -8.984375 5.34375 -8.835938 4.875 -8.546875 C 4.414062 -8.253906 4.0625 -7.828125 3.8125 -7.265625 C 3.570312 -6.703125 3.453125 -6.003906 3.453125 -5.171875 C 3.453125 -3.929688 3.726562 -2.976562 4.28125 -2.3125 C 4.832031 -1.65625 5.570312 -1.328125 6.5 -1.328125 Z M 6.5 -1.328125 "/></g></g></g><g fill="#545454" fill-opacity="1"><g transform="translate(419.938518, 384.501637)"><g><path d="M 4.78125 0.1875 C 3.726562 0.1875 2.925781 -0.125 2.375 -0.75 C 1.820312 -1.375 1.546875 -2.28125 1.546875 -3.46875 L 1.546875 -14.109375 C 1.546875 -14.429688 1.628906 -14.671875 1.796875 -14.828125 C 1.972656 -14.992188 2.207031 -15.078125 2.5 -15.078125 C 2.8125 -15.078125 3.050781 -14.992188 3.21875 -14.828125 C 3.382812 -14.671875 3.46875 -14.429688 3.46875 -14.109375 L 3.46875 -3.625 C 3.46875 -2.882812 3.617188 -2.332031 3.921875 -1.96875 C 4.234375 -1.613281 4.671875 -1.4375 5.234375 -1.4375 C 5.359375 -1.4375 5.46875 -1.441406 5.5625 -1.453125 C 5.664062 -1.460938 5.769531 -1.472656 5.875 -1.484375 C 6.03125 -1.492188 6.140625 -1.445312 6.203125 -1.34375 C 6.273438 -1.25 6.3125 -1.054688 6.3125 -0.765625 C 6.3125 -0.492188 6.25 -0.285156 6.125 -0.140625 C 6.007812 0.00390625 5.816406 0.0976562 5.546875 0.140625 C 5.421875 0.160156 5.296875 0.171875 5.171875 0.171875 C 5.046875 0.179688 4.914062 0.1875 4.78125 0.1875 Z M 4.78125 0.1875 "/></g></g></g><g fill="#545454" fill-opacity="1"><g transform="translate(426.316491, 384.501637)"><g><path d="M 5.9375 0.1875 C 4.914062 0.1875 4.03125 -0.03125 3.28125 -0.46875 C 2.53125 -0.90625 1.953125 -1.523438 1.546875 -2.328125 C 1.140625 -3.128906 0.9375 -4.078125 0.9375 -5.171875 C 0.9375 -5.992188 1.050781 -6.734375 1.28125 -7.390625 C 1.507812 -8.046875 1.84375 -8.601562 2.28125 -9.0625 C 2.71875 -9.53125 3.242188 -9.890625 3.859375 -10.140625 C 4.472656 -10.390625 5.164062 -10.515625 5.9375 -10.515625 C 6.945312 -10.515625 7.828125 -10.296875 8.578125 -9.859375 C 9.328125 -9.421875 9.90625 -8.800781 10.3125 -8 C 10.726562 -7.195312 10.9375 -6.253906 10.9375 -5.171875 C 10.9375 -4.347656 10.816406 -3.601562 10.578125 -2.9375 C 10.347656 -2.28125 10.015625 -1.71875 9.578125 -1.25 C 9.140625 -0.78125 8.613281 -0.421875 8 -0.171875 C 7.382812 0.0664062 6.695312 0.1875 5.9375 0.1875 Z M 5.9375 -1.328125 C 6.550781 -1.328125 7.085938 -1.472656 7.546875 -1.765625 C 8.003906 -2.066406 8.359375 -2.5 8.609375 -3.0625 C 8.859375 -3.632812 8.984375 -4.335938 8.984375 -5.171875 C 8.984375 -6.410156 8.707031 -7.351562 8.15625 -8 C 7.601562 -8.65625 6.863281 -8.984375 5.9375 -8.984375 C 5.320312 -8.984375 4.785156 -8.835938 4.328125 -8.546875 C 3.867188 -8.253906 3.507812 -7.828125 3.25 -7.265625 C 3 -6.703125 2.875 -6.003906 2.875 -5.171875 C 2.875 -3.929688 3.15625 -2.976562 3.71875 -2.3125 C 4.28125 -1.65625 5.019531 -1.328125 5.9375 -1.328125 Z M 5.9375 -1.328125 "/></g></g></g><g fill="#545454" fill-opacity="1"><g transform="translate(438.182484, 384.501637)"><g><path d="M 6.015625 0.1875 C 4.972656 0.1875 4.066406 -0.03125 3.296875 -0.46875 C 2.535156 -0.914062 1.953125 -1.546875 1.546875 -2.359375 C 1.140625 -3.171875 0.9375 -4.128906 0.9375 -5.234375 C 0.9375 -6.054688 1.050781 -6.789062 1.28125 -7.4375 C 1.507812 -8.082031 1.84375 -8.632812 2.28125 -9.09375 C 2.71875 -9.550781 3.25 -9.898438 3.875 -10.140625 C 4.507812 -10.390625 5.222656 -10.515625 6.015625 -10.515625 C 6.515625 -10.515625 7.035156 -10.4375 7.578125 -10.28125 C 8.128906 -10.125 8.640625 -9.867188 9.109375 -9.515625 C 9.265625 -9.398438 9.363281 -9.269531 9.40625 -9.125 C 9.445312 -8.976562 9.445312 -8.828125 9.40625 -8.671875 C 9.375 -8.515625 9.304688 -8.378906 9.203125 -8.265625 C 9.097656 -8.160156 8.960938 -8.101562 8.796875 -8.09375 C 8.640625 -8.082031 8.46875 -8.128906 8.28125 -8.234375 C 7.945312 -8.492188 7.59375 -8.679688 7.21875 -8.796875 C 6.84375 -8.910156 6.484375 -8.96875 6.140625 -8.96875 C 5.617188 -8.96875 5.15625 -8.878906 4.75 -8.703125 C 4.351562 -8.535156 4.015625 -8.289062 3.734375 -7.96875 C 3.460938 -7.65625 3.253906 -7.269531 3.109375 -6.8125 C 2.972656 -6.351562 2.90625 -5.820312 2.90625 -5.21875 C 2.90625 -4.007812 3.1875 -3.0625 3.75 -2.375 C 4.3125 -1.695312 5.109375 -1.359375 6.140625 -1.359375 C 6.484375 -1.359375 6.835938 -1.410156 7.203125 -1.515625 C 7.566406 -1.617188 7.925781 -1.800781 8.28125 -2.0625 C 8.46875 -2.164062 8.640625 -2.207031 8.796875 -2.1875 C 8.953125 -2.164062 9.082031 -2.101562 9.1875 -2 C 9.289062 -1.894531 9.351562 -1.765625 9.375 -1.609375 C 9.40625 -1.460938 9.394531 -1.3125 9.34375 -1.15625 C 9.300781 -1.007812 9.203125 -0.882812 9.046875 -0.78125 C 8.597656 -0.445312 8.101562 -0.203125 7.5625 -0.046875 C 7.03125 0.109375 6.515625 0.1875 6.015625 0.1875 Z M 6.015625 0.1875 "/></g></g></g><g fill="#545454" fill-opacity="1"><g transform="translate(448.035497, 384.501637)"><g><path d="M 2.5 0.140625 C 2.207031 0.140625 1.972656 0.0546875 1.796875 -0.109375 C 1.628906 -0.273438 1.546875 -0.519531 1.546875 -0.84375 L 1.546875 -14.109375 C 1.546875 -14.429688 1.628906 -14.671875 1.796875 -14.828125 C 1.972656 -14.992188 2.207031 -15.078125 2.5 -15.078125 C 2.8125 -15.078125 3.050781 -14.992188 3.21875 -14.828125 C 3.382812 -14.671875 3.46875 -14.429688 3.46875 -14.109375 L 3.46875 -5.765625 L 3.515625 -5.765625 L 7.671875 -9.8125 C 7.878906 -10.019531 8.066406 -10.179688 8.234375 -10.296875 C 8.410156 -10.410156 8.632812 -10.46875 8.90625 -10.46875 C 9.164062 -10.46875 9.363281 -10.398438 9.5 -10.265625 C 9.644531 -10.128906 9.71875 -9.957031 9.71875 -9.75 C 9.71875 -9.550781 9.617188 -9.351562 9.421875 -9.15625 L 5.015625 -4.875 L 5.015625 -5.828125 L 9.828125 -1.1875 C 10.023438 -0.988281 10.117188 -0.78125 10.109375 -0.5625 C 10.109375 -0.351562 10.03125 -0.179688 9.875 -0.046875 C 9.726562 0.078125 9.535156 0.140625 9.296875 0.140625 C 9.015625 0.140625 8.785156 0.0859375 8.609375 -0.015625 C 8.429688 -0.128906 8.234375 -0.304688 8.015625 -0.546875 L 3.515625 -4.78125 L 3.46875 -4.78125 L 3.46875 -0.84375 C 3.46875 -0.1875 3.144531 0.140625 2.5 0.140625 Z M 2.5 0.140625 "/></g></g></g><g fill="#545454" fill-opacity="1"><g transform="translate(458.799647, 384.501637)"><g/></g></g><g fill="#545454" fill-opacity="1"><g transform="translate(464.330048, 384.501637)"><g><path d="M 2.5 0.109375 C 2.207031 0.109375 1.972656 0.0195312 1.796875 -0.15625 C 1.628906 -0.34375 1.546875 -0.601562 1.546875 -0.9375 L 1.546875 -9.390625 C 1.546875 -9.722656 1.628906 -9.976562 1.796875 -10.15625 C 1.972656 -10.332031 2.207031 -10.421875 2.5 -10.421875 C 2.8125 -10.421875 3.050781 -10.332031 3.21875 -10.15625 C 3.382812 -9.976562 3.46875 -9.722656 3.46875 -9.390625 L 3.46875 -0.9375 C 3.46875 -0.601562 3.382812 -0.34375 3.21875 -0.15625 C 3.0625 0.0195312 2.820312 0.109375 2.5 0.109375 Z M 2.5 -12.71875 C 2.113281 -12.71875 1.8125 -12.816406 1.59375 -13.015625 C 1.375 -13.222656 1.265625 -13.492188 1.265625 -13.828125 C 1.265625 -14.203125 1.375 -14.484375 1.59375 -14.671875 C 1.8125 -14.859375 2.113281 -14.953125 2.5 -14.953125 C 2.90625 -14.953125 3.210938 -14.859375 3.421875 -14.671875 C 3.628906 -14.484375 3.734375 -14.203125 3.734375 -13.828125 C 3.734375 -13.492188 3.628906 -13.222656 3.421875 -13.015625 C 3.210938 -12.816406 2.90625 -12.71875 2.5 -12.71875 Z M 2.5 -12.71875 "/></g></g></g><g fill="#545454" fill-opacity="1"><g transform="translate(469.351907, 384.501637)"><g><path d="M 2.5 0.140625 C 2.207031 0.140625 1.972656 0.0546875 1.796875 -0.109375 C 1.628906 -0.273438 1.546875 -0.519531 1.546875 -0.84375 L 1.546875 -9.484375 C 1.546875 -9.816406 1.628906 -10.0625 1.796875 -10.21875 C 1.972656 -10.382812 2.207031 -10.46875 2.5 -10.46875 C 2.789062 -10.46875 3.019531 -10.382812 3.1875 -10.21875 C 3.351562 -10.0625 3.4375 -9.816406 3.4375 -9.484375 L 3.4375 -7.75 L 3.203125 -8.078125 C 3.492188 -8.878906 3.972656 -9.484375 4.640625 -9.890625 C 5.316406 -10.304688 6.085938 -10.515625 6.953125 -10.515625 C 7.785156 -10.515625 8.46875 -10.363281 9 -10.0625 C 9.539062 -9.769531 9.941406 -9.316406 10.203125 -8.703125 C 10.472656 -8.097656 10.609375 -7.332031 10.609375 -6.40625 L 10.609375 -0.84375 C 10.609375 -0.519531 10.523438 -0.273438 10.359375 -0.109375 C 10.203125 0.0546875 9.96875 0.140625 9.65625 0.140625 C 9.351562 0.140625 9.113281 0.0546875 8.9375 -0.109375 C 8.769531 -0.273438 8.6875 -0.519531 8.6875 -0.84375 L 8.6875 -6.296875 C 8.6875 -7.210938 8.507812 -7.878906 8.15625 -8.296875 C 7.800781 -8.722656 7.238281 -8.9375 6.46875 -8.9375 C 5.5625 -8.9375 4.832031 -8.65625 4.28125 -8.09375 C 3.738281 -7.539062 3.46875 -6.789062 3.46875 -5.84375 L 3.46875 -0.84375 C 3.46875 -0.1875 3.144531 0.140625 2.5 0.140625 Z M 2.5 0.140625 "/></g></g></g><g fill="#545454" fill-opacity="1"><g transform="translate(481.472171, 384.501637)"><g><path d="M 5.109375 0.1875 C 4.472656 0.1875 3.832031 0.113281 3.1875 -0.03125 C 2.539062 -0.175781 1.9375 -0.4375 1.375 -0.8125 C 1.21875 -0.90625 1.109375 -1.023438 1.046875 -1.171875 C 0.984375 -1.316406 0.960938 -1.460938 0.984375 -1.609375 C 1.003906 -1.765625 1.0625 -1.898438 1.15625 -2.015625 C 1.257812 -2.128906 1.382812 -2.195312 1.53125 -2.21875 C 1.6875 -2.238281 1.847656 -2.195312 2.015625 -2.09375 C 2.566406 -1.78125 3.097656 -1.5625 3.609375 -1.4375 C 4.128906 -1.3125 4.644531 -1.25 5.15625 -1.25 C 5.925781 -1.25 6.507812 -1.390625 6.90625 -1.671875 C 7.300781 -1.953125 7.5 -2.328125 7.5 -2.796875 C 7.5 -3.191406 7.367188 -3.5 7.109375 -3.71875 C 6.847656 -3.9375 6.441406 -4.101562 5.890625 -4.21875 L 3.921875 -4.625 C 3.046875 -4.820312 2.382812 -5.148438 1.9375 -5.609375 C 1.488281 -6.066406 1.265625 -6.65625 1.265625 -7.375 C 1.265625 -8.007812 1.4375 -8.5625 1.78125 -9.03125 C 2.132812 -9.507812 2.617188 -9.875 3.234375 -10.125 C 3.859375 -10.382812 4.570312 -10.515625 5.375 -10.515625 C 6 -10.515625 6.585938 -10.429688 7.140625 -10.265625 C 7.703125 -10.097656 8.210938 -9.851562 8.671875 -9.53125 C 8.835938 -9.4375 8.941406 -9.3125 8.984375 -9.15625 C 9.035156 -9.007812 9.046875 -8.863281 9.015625 -8.71875 C 8.984375 -8.570312 8.914062 -8.445312 8.8125 -8.34375 C 8.71875 -8.25 8.59375 -8.191406 8.4375 -8.171875 C 8.28125 -8.148438 8.109375 -8.1875 7.921875 -8.28125 C 7.515625 -8.5625 7.09375 -8.757812 6.65625 -8.875 C 6.226562 -9 5.800781 -9.0625 5.375 -9.0625 C 4.613281 -9.0625 4.039062 -8.910156 3.65625 -8.609375 C 3.269531 -8.316406 3.078125 -7.929688 3.078125 -7.453125 C 3.078125 -7.085938 3.191406 -6.785156 3.421875 -6.546875 C 3.648438 -6.304688 4.019531 -6.128906 4.53125 -6.015625 L 6.5 -5.609375 C 7.414062 -5.410156 8.109375 -5.097656 8.578125 -4.671875 C 9.046875 -4.242188 9.28125 -3.660156 9.28125 -2.921875 C 9.28125 -1.960938 8.898438 -1.203125 8.140625 -0.640625 C 7.390625 -0.0859375 6.378906 0.1875 5.109375 0.1875 Z M 5.109375 0.1875 "/></g></g></g><g fill="#545454" fill-opacity="1"><g transform="translate(491.706594, 384.501637)"><g><path d="M 5.828125 0.1875 C 4.992188 0.1875 4.296875 0.0390625 3.734375 -0.25 C 3.179688 -0.550781 2.765625 -0.984375 2.484375 -1.546875 C 2.210938 -2.109375 2.078125 -2.800781 2.078125 -3.625 L 2.078125 -8.828125 L 0.71875 -8.828125 C 0.46875 -8.828125 0.269531 -8.894531 0.125 -9.03125 C -0.0078125 -9.164062 -0.078125 -9.347656 -0.078125 -9.578125 C -0.078125 -9.816406 -0.0078125 -10 0.125 -10.125 C 0.269531 -10.25 0.46875 -10.3125 0.71875 -10.3125 L 2.078125 -10.3125 L 2.078125 -12.625 C 2.078125 -12.945312 2.160156 -13.191406 2.328125 -13.359375 C 2.492188 -13.523438 2.734375 -13.609375 3.046875 -13.609375 C 3.359375 -13.609375 3.59375 -13.523438 3.75 -13.359375 C 3.914062 -13.191406 4 -12.945312 4 -12.625 L 4 -10.3125 L 6.5625 -10.3125 C 6.832031 -10.3125 7.035156 -10.25 7.171875 -10.125 C 7.316406 -10 7.390625 -9.816406 7.390625 -9.578125 C 7.390625 -9.347656 7.316406 -9.164062 7.171875 -9.03125 C 7.035156 -8.894531 6.832031 -8.828125 6.5625 -8.828125 L 4 -8.828125 L 4 -3.796875 C 4 -3.015625 4.160156 -2.425781 4.484375 -2.03125 C 4.816406 -1.632812 5.359375 -1.4375 6.109375 -1.4375 C 6.367188 -1.4375 6.59375 -1.460938 6.78125 -1.515625 C 6.96875 -1.566406 7.128906 -1.59375 7.265625 -1.59375 C 7.390625 -1.601562 7.5 -1.554688 7.59375 -1.453125 C 7.6875 -1.359375 7.734375 -1.175781 7.734375 -0.90625 C 7.734375 -0.707031 7.703125 -0.523438 7.640625 -0.359375 C 7.578125 -0.203125 7.453125 -0.0976562 7.265625 -0.046875 C 7.097656 0.015625 6.875 0.0664062 6.59375 0.109375 C 6.3125 0.160156 6.054688 0.1875 5.828125 0.1875 Z M 5.828125 0.1875 "/></g></g></g><g fill="#545454" fill-opacity="1"><g transform="translate(499.292355, 384.501637)"><g><path d="M 4.828125 0.1875 C 4.117188 0.1875 3.476562 0.046875 2.90625 -0.234375 C 2.34375 -0.515625 1.898438 -0.894531 1.578125 -1.375 C 1.265625 -1.851562 1.109375 -2.390625 1.109375 -2.984375 C 1.109375 -3.742188 1.296875 -4.34375 1.671875 -4.78125 C 2.054688 -5.21875 2.695312 -5.53125 3.59375 -5.71875 C 4.5 -5.914062 5.71875 -6.015625 7.25 -6.015625 L 8.234375 -6.015625 L 8.234375 -4.78125 L 7.28125 -4.78125 C 6.195312 -4.78125 5.335938 -4.726562 4.703125 -4.625 C 4.078125 -4.53125 3.640625 -4.359375 3.390625 -4.109375 C 3.140625 -3.867188 3.015625 -3.53125 3.015625 -3.09375 C 3.015625 -2.539062 3.207031 -2.085938 3.59375 -1.734375 C 3.976562 -1.378906 4.507812 -1.203125 5.1875 -1.203125 C 5.726562 -1.203125 6.203125 -1.332031 6.609375 -1.59375 C 7.015625 -1.851562 7.335938 -2.207031 7.578125 -2.65625 C 7.828125 -3.101562 7.953125 -3.613281 7.953125 -4.1875 L 7.953125 -6.625 C 7.953125 -7.457031 7.78125 -8.0625 7.4375 -8.4375 C 7.09375 -8.8125 6.519531 -9 5.71875 -9 C 5.25 -9 4.765625 -8.9375 4.265625 -8.8125 C 3.773438 -8.6875 3.265625 -8.488281 2.734375 -8.21875 C 2.523438 -8.125 2.34375 -8.09375 2.1875 -8.125 C 2.03125 -8.15625 1.90625 -8.238281 1.8125 -8.375 C 1.71875 -8.507812 1.664062 -8.65625 1.65625 -8.8125 C 1.65625 -8.976562 1.691406 -9.140625 1.765625 -9.296875 C 1.847656 -9.453125 1.988281 -9.566406 2.1875 -9.640625 C 2.800781 -9.953125 3.414062 -10.175781 4.03125 -10.3125 C 4.644531 -10.445312 5.222656 -10.515625 5.765625 -10.515625 C 6.679688 -10.515625 7.4375 -10.367188 8.03125 -10.078125 C 8.625 -9.785156 9.066406 -9.335938 9.359375 -8.734375 C 9.660156 -8.140625 9.8125 -7.375 9.8125 -6.4375 L 9.8125 -0.84375 C 9.8125 -0.519531 9.734375 -0.273438 9.578125 -0.109375 C 9.421875 0.0546875 9.195312 0.140625 8.90625 0.140625 C 8.613281 0.140625 8.382812 0.0546875 8.21875 -0.109375 C 8.0625 -0.273438 7.984375 -0.519531 7.984375 -0.84375 L 7.984375 -2.359375 L 8.171875 -2.359375 C 8.066406 -1.828125 7.859375 -1.367188 7.546875 -0.984375 C 7.234375 -0.609375 6.847656 -0.316406 6.390625 -0.109375 C 5.929688 0.0859375 5.410156 0.1875 4.828125 0.1875 Z M 4.828125 0.1875 "/></g></g></g><g fill="#545454" fill-opacity="1"><g transform="translate(510.586242, 384.501637)"><g><path d="M 6.1875 4 C 5.425781 4 4.6875 3.914062 3.96875 3.75 C 3.257812 3.582031 2.613281 3.320312 2.03125 2.96875 C 1.851562 2.851562 1.726562 2.722656 1.65625 2.578125 C 1.59375 2.429688 1.578125 2.28125 1.609375 2.125 C 1.648438 1.96875 1.722656 1.828125 1.828125 1.703125 C 1.929688 1.585938 2.054688 1.507812 2.203125 1.46875 C 2.359375 1.4375 2.515625 1.46875 2.671875 1.5625 C 3.296875 1.914062 3.890625 2.15625 4.453125 2.28125 C 5.015625 2.414062 5.550781 2.484375 6.0625 2.484375 C 7.0625 2.484375 7.8125 2.222656 8.3125 1.703125 C 8.8125 1.191406 9.0625 0.441406 9.0625 -0.546875 L 9.0625 -2.84375 L 9.265625 -2.84375 C 9.066406 -2.050781 8.625 -1.421875 7.9375 -0.953125 C 7.25 -0.484375 6.453125 -0.25 5.546875 -0.25 C 4.617188 -0.25 3.804688 -0.460938 3.109375 -0.890625 C 2.421875 -1.328125 1.882812 -1.929688 1.5 -2.703125 C 1.125 -3.472656 0.9375 -4.363281 0.9375 -5.375 C 0.9375 -6.15625 1.046875 -6.859375 1.265625 -7.484375 C 1.484375 -8.117188 1.789062 -8.65625 2.1875 -9.09375 C 2.59375 -9.539062 3.078125 -9.890625 3.640625 -10.140625 C 4.203125 -10.390625 4.835938 -10.515625 5.546875 -10.515625 C 6.460938 -10.515625 7.257812 -10.28125 7.9375 -9.8125 C 8.625 -9.34375 9.066406 -8.710938 9.265625 -7.921875 L 9.03125 -7.625 L 9.03125 -9.484375 C 9.03125 -9.816406 9.113281 -10.0625 9.28125 -10.21875 C 9.445312 -10.382812 9.6875 -10.46875 10 -10.46875 C 10.300781 -10.46875 10.535156 -10.382812 10.703125 -10.21875 C 10.867188 -10.0625 10.953125 -9.816406 10.953125 -9.484375 L 10.953125 -0.8125 C 10.953125 0.789062 10.546875 1.992188 9.734375 2.796875 C 8.921875 3.597656 7.738281 4 6.1875 4 Z M 5.96875 -1.78125 C 6.601562 -1.78125 7.148438 -1.925781 7.609375 -2.21875 C 8.078125 -2.507812 8.429688 -2.925781 8.671875 -3.46875 C 8.921875 -4.007812 9.046875 -4.644531 9.046875 -5.375 C 9.046875 -6.5 8.769531 -7.378906 8.21875 -8.015625 C 7.664062 -8.660156 6.914062 -8.984375 5.96875 -8.984375 C 5.332031 -8.984375 4.785156 -8.835938 4.328125 -8.546875 C 3.867188 -8.253906 3.507812 -7.835938 3.25 -7.296875 C 3 -6.765625 2.875 -6.125 2.875 -5.375 C 2.875 -4.28125 3.15625 -3.40625 3.71875 -2.75 C 4.28125 -2.101562 5.03125 -1.78125 5.96875 -1.78125 Z M 5.96875 -1.78125 "/></g></g></g><g fill="#545454" fill-opacity="1"><g transform="translate(523.087917, 384.501637)"><g><path d="M 2.546875 0.140625 C 2.222656 0.140625 1.972656 0.0546875 1.796875 -0.109375 C 1.628906 -0.273438 1.546875 -0.519531 1.546875 -0.84375 L 1.546875 -9.484375 C 1.546875 -9.816406 1.628906 -10.0625 1.796875 -10.21875 C 1.972656 -10.382812 2.207031 -10.46875 2.5 -10.46875 C 2.789062 -10.46875 3.019531 -10.382812 3.1875 -10.21875 C 3.351562 -10.0625 3.4375 -9.816406 3.4375 -9.484375 L 3.4375 -7.859375 L 3.21875 -7.859375 C 3.445312 -8.703125 3.867188 -9.34375 4.484375 -9.78125 C 5.109375 -10.226562 5.894531 -10.476562 6.84375 -10.53125 C 7.070312 -10.539062 7.253906 -10.484375 7.390625 -10.359375 C 7.535156 -10.242188 7.613281 -10.046875 7.625 -9.765625 C 7.644531 -9.492188 7.582031 -9.273438 7.4375 -9.109375 C 7.289062 -8.953125 7.070312 -8.859375 6.78125 -8.828125 L 6.40625 -8.8125 C 5.46875 -8.71875 4.75 -8.414062 4.25 -7.90625 C 3.75 -7.394531 3.5 -6.695312 3.5 -5.8125 L 3.5 -0.84375 C 3.5 -0.519531 3.414062 -0.273438 3.25 -0.109375 C 3.09375 0.0546875 2.859375 0.140625 2.546875 0.140625 Z M 2.546875 0.140625 "/></g></g></g><g fill="#545454" fill-opacity="1"><g transform="translate(530.822003, 384.501637)"><g><path d="M 4.828125 0.1875 C 4.117188 0.1875 3.476562 0.046875 2.90625 -0.234375 C 2.34375 -0.515625 1.898438 -0.894531 1.578125 -1.375 C 1.265625 -1.851562 1.109375 -2.390625 1.109375 -2.984375 C 1.109375 -3.742188 1.296875 -4.34375 1.671875 -4.78125 C 2.054688 -5.21875 2.695312 -5.53125 3.59375 -5.71875 C 4.5 -5.914062 5.71875 -6.015625 7.25 -6.015625 L 8.234375 -6.015625 L 8.234375 -4.78125 L 7.28125 -4.78125 C 6.195312 -4.78125 5.335938 -4.726562 4.703125 -4.625 C 4.078125 -4.53125 3.640625 -4.359375 3.390625 -4.109375 C 3.140625 -3.867188 3.015625 -3.53125 3.015625 -3.09375 C 3.015625 -2.539062 3.207031 -2.085938 3.59375 -1.734375 C 3.976562 -1.378906 4.507812 -1.203125 5.1875 -1.203125 C 5.726562 -1.203125 6.203125 -1.332031 6.609375 -1.59375 C 7.015625 -1.851562 7.335938 -2.207031 7.578125 -2.65625 C 7.828125 -3.101562 7.953125 -3.613281 7.953125 -4.1875 L 7.953125 -6.625 C 7.953125 -7.457031 7.78125 -8.0625 7.4375 -8.4375 C 7.09375 -8.8125 6.519531 -9 5.71875 -9 C 5.25 -9 4.765625 -8.9375 4.265625 -8.8125 C 3.773438 -8.6875 3.265625 -8.488281 2.734375 -8.21875 C 2.523438 -8.125 2.34375 -8.09375 2.1875 -8.125 C 2.03125 -8.15625 1.90625 -8.238281 1.8125 -8.375 C 1.71875 -8.507812 1.664062 -8.65625 1.65625 -8.8125 C 1.65625 -8.976562 1.691406 -9.140625 1.765625 -9.296875 C 1.847656 -9.453125 1.988281 -9.566406 2.1875 -9.640625 C 2.800781 -9.953125 3.414062 -10.175781 4.03125 -10.3125 C 4.644531 -10.445312 5.222656 -10.515625 5.765625 -10.515625 C 6.679688 -10.515625 7.4375 -10.367188 8.03125 -10.078125 C 8.625 -9.785156 9.066406 -9.335938 9.359375 -8.734375 C 9.660156 -8.140625 9.8125 -7.375 9.8125 -6.4375 L 9.8125 -0.84375 C 9.8125 -0.519531 9.734375 -0.273438 9.578125 -0.109375 C 9.421875 0.0546875 9.195312 0.140625 8.90625 0.140625 C 8.613281 0.140625 8.382812 0.0546875 8.21875 -0.109375 C 8.0625 -0.273438 7.984375 -0.519531 7.984375 -0.84375 L 7.984375 -2.359375 L 8.171875 -2.359375 C 8.066406 -1.828125 7.859375 -1.367188 7.546875 -0.984375 C 7.234375 -0.609375 6.847656 -0.316406 6.390625 -0.109375 C 5.929688 0.0859375 5.410156 0.1875 4.828125 0.1875 Z M 4.828125 0.1875 "/></g></g></g><g fill="#545454" fill-opacity="1"><g transform="translate(542.11589, 384.501637)"><g><path d="M 2.546875 0.140625 C 2.242188 0.140625 2.007812 0.0546875 1.84375 -0.109375 C 1.675781 -0.273438 1.59375 -0.519531 1.59375 -0.84375 L 1.59375 -9.484375 C 1.59375 -9.816406 1.675781 -10.0625 1.84375 -10.21875 C 2.007812 -10.382812 2.242188 -10.46875 2.546875 -10.46875 C 2.835938 -10.46875 3.0625 -10.382812 3.21875 -10.21875 C 3.382812 -10.0625 3.46875 -9.816406 3.46875 -9.484375 L 3.46875 -7.6875 L 3.234375 -8.078125 C 3.503906 -8.847656 3.9375 -9.445312 4.53125 -9.875 C 5.132812 -10.300781 5.851562 -10.515625 6.6875 -10.515625 C 7.570312 -10.515625 8.28125 -10.304688 8.8125 -9.890625 C 9.351562 -9.472656 9.710938 -8.835938 9.890625 -7.984375 L 9.59375 -7.984375 C 9.851562 -8.765625 10.3125 -9.378906 10.96875 -9.828125 C 11.625 -10.285156 12.390625 -10.515625 13.265625 -10.515625 C 14.035156 -10.515625 14.671875 -10.359375 15.171875 -10.046875 C 15.679688 -9.742188 16.0625 -9.289062 16.3125 -8.6875 C 16.570312 -8.09375 16.703125 -7.332031 16.703125 -6.40625 L 16.703125 -0.84375 C 16.703125 -0.519531 16.613281 -0.273438 16.4375 -0.109375 C 16.269531 0.0546875 16.039062 0.140625 15.75 0.140625 C 15.4375 0.140625 15.191406 0.0546875 15.015625 -0.109375 C 14.847656 -0.273438 14.765625 -0.519531 14.765625 -0.84375 L 14.765625 -6.3125 C 14.765625 -7.21875 14.609375 -7.878906 14.296875 -8.296875 C 13.984375 -8.722656 13.460938 -8.9375 12.734375 -8.9375 C 11.929688 -8.9375 11.289062 -8.65625 10.8125 -8.09375 C 10.34375 -7.539062 10.109375 -6.78125 10.109375 -5.8125 L 10.109375 -0.84375 C 10.109375 -0.519531 10.023438 -0.273438 9.859375 -0.109375 C 9.703125 0.0546875 9.46875 0.140625 9.15625 0.140625 C 8.84375 0.140625 8.597656 0.0546875 8.421875 -0.109375 C 8.253906 -0.273438 8.171875 -0.519531 8.171875 -0.84375 L 8.171875 -6.3125 C 8.171875 -7.21875 8.015625 -7.878906 7.703125 -8.296875 C 7.398438 -8.722656 6.878906 -8.9375 6.140625 -8.9375 C 5.335938 -8.9375 4.695312 -8.65625 4.21875 -8.09375 C 3.75 -7.539062 3.515625 -6.78125 3.515625 -5.8125 L 3.515625 -0.84375 C 3.515625 -0.1875 3.191406 0.140625 2.546875 0.140625 Z M 2.546875 0.140625 "/></g></g></g><g fill="#545454" fill-opacity="1"><g transform="translate(560.359865, 384.501637)"><g><path d="M 2.484375 0.078125 C 2.109375 0.078125 1.800781 -0.0390625 1.5625 -0.28125 C 1.320312 -0.519531 1.203125 -0.820312 1.203125 -1.1875 C 1.203125 -1.550781 1.320312 -1.847656 1.5625 -2.078125 C 1.800781 -2.304688 2.109375 -2.421875 2.484375 -2.421875 C 2.878906 -2.421875 3.1875 -2.304688 3.40625 -2.078125 C 3.625 -1.847656 3.734375 -1.550781 3.734375 -1.1875 C 3.734375 -0.820312 3.625 -0.519531 3.40625 -0.28125 C 3.1875 -0.0390625 2.878906 0.078125 2.484375 0.078125 Z M 2.484375 0.078125 "/></g></g></g><g fill="#545454" fill-opacity="1"><g transform="translate(565.296964, 384.501637)"><g><path d="M 6.015625 0.1875 C 4.972656 0.1875 4.066406 -0.03125 3.296875 -0.46875 C 2.535156 -0.914062 1.953125 -1.546875 1.546875 -2.359375 C 1.140625 -3.171875 0.9375 -4.128906 0.9375 -5.234375 C 0.9375 -6.054688 1.050781 -6.789062 1.28125 -7.4375 C 1.507812 -8.082031 1.84375 -8.632812 2.28125 -9.09375 C 2.71875 -9.550781 3.25 -9.898438 3.875 -10.140625 C 4.507812 -10.390625 5.222656 -10.515625 6.015625 -10.515625 C 6.515625 -10.515625 7.035156 -10.4375 7.578125 -10.28125 C 8.128906 -10.125 8.640625 -9.867188 9.109375 -9.515625 C 9.265625 -9.398438 9.363281 -9.269531 9.40625 -9.125 C 9.445312 -8.976562 9.445312 -8.828125 9.40625 -8.671875 C 9.375 -8.515625 9.304688 -8.378906 9.203125 -8.265625 C 9.097656 -8.160156 8.960938 -8.101562 8.796875 -8.09375 C 8.640625 -8.082031 8.46875 -8.128906 8.28125 -8.234375 C 7.945312 -8.492188 7.59375 -8.679688 7.21875 -8.796875 C 6.84375 -8.910156 6.484375 -8.96875 6.140625 -8.96875 C 5.617188 -8.96875 5.15625 -8.878906 4.75 -8.703125 C 4.351562 -8.535156 4.015625 -8.289062 3.734375 -7.96875 C 3.460938 -7.65625 3.253906 -7.269531 3.109375 -6.8125 C 2.972656 -6.351562 2.90625 -5.820312 2.90625 -5.21875 C 2.90625 -4.007812 3.1875 -3.0625 3.75 -2.375 C 4.3125 -1.695312 5.109375 -1.359375 6.140625 -1.359375 C 6.484375 -1.359375 6.835938 -1.410156 7.203125 -1.515625 C 7.566406 -1.617188 7.925781 -1.800781 8.28125 -2.0625 C 8.46875 -2.164062 8.640625 -2.207031 8.796875 -2.1875 C 8.953125 -2.164062 9.082031 -2.101562 9.1875 -2 C 9.289062 -1.894531 9.351562 -1.765625 9.375 -1.609375 C 9.40625 -1.460938 9.394531 -1.3125 9.34375 -1.15625 C 9.300781 -1.007812 9.203125 -0.882812 9.046875 -0.78125 C 8.597656 -0.445312 8.101562 -0.203125 7.5625 -0.046875 C 7.03125 0.109375 6.515625 0.1875 6.015625 0.1875 Z M 6.015625 0.1875 "/></g></g></g><g fill="#545454" fill-opacity="1"><g transform="translate(575.149977, 384.501637)"><g><path d="M 5.9375 0.1875 C 4.914062 0.1875 4.03125 -0.03125 3.28125 -0.46875 C 2.53125 -0.90625 1.953125 -1.523438 1.546875 -2.328125 C 1.140625 -3.128906 0.9375 -4.078125 0.9375 -5.171875 C 0.9375 -5.992188 1.050781 -6.734375 1.28125 -7.390625 C 1.507812 -8.046875 1.84375 -8.601562 2.28125 -9.0625 C 2.71875 -9.53125 3.242188 -9.890625 3.859375 -10.140625 C 4.472656 -10.390625 5.164062 -10.515625 5.9375 -10.515625 C 6.945312 -10.515625 7.828125 -10.296875 8.578125 -9.859375 C 9.328125 -9.421875 9.90625 -8.800781 10.3125 -8 C 10.726562 -7.195312 10.9375 -6.253906 10.9375 -5.171875 C 10.9375 -4.347656 10.816406 -3.601562 10.578125 -2.9375 C 10.347656 -2.28125 10.015625 -1.71875 9.578125 -1.25 C 9.140625 -0.78125 8.613281 -0.421875 8 -0.171875 C 7.382812 0.0664062 6.695312 0.1875 5.9375 0.1875 Z M 5.9375 -1.328125 C 6.550781 -1.328125 7.085938 -1.472656 7.546875 -1.765625 C 8.003906 -2.066406 8.359375 -2.5 8.609375 -3.0625 C 8.859375 -3.632812 8.984375 -4.335938 8.984375 -5.171875 C 8.984375 -6.410156 8.707031 -7.351562 8.15625 -8 C 7.601562 -8.65625 6.863281 -8.984375 5.9375 -8.984375 C 5.320312 -8.984375 4.785156 -8.835938 4.328125 -8.546875 C 3.867188 -8.253906 3.507812 -7.828125 3.25 -7.265625 C 3 -6.703125 2.875 -6.003906 2.875 -5.171875 C 2.875 -3.929688 3.15625 -2.976562 3.71875 -2.3125 C 4.28125 -1.65625 5.019531 -1.328125 5.9375 -1.328125 Z M 5.9375 -1.328125 "/></g></g></g><g fill="#545454" fill-opacity="1"><g transform="translate(587.01597, 384.501637)"><g><path d="M 2.546875 0.140625 C 2.242188 0.140625 2.007812 0.0546875 1.84375 -0.109375 C 1.675781 -0.273438 1.59375 -0.519531 1.59375 -0.84375 L 1.59375 -9.484375 C 1.59375 -9.816406 1.675781 -10.0625 1.84375 -10.21875 C 2.007812 -10.382812 2.242188 -10.46875 2.546875 -10.46875 C 2.835938 -10.46875 3.0625 -10.382812 3.21875 -10.21875 C 3.382812 -10.0625 3.46875 -9.816406 3.46875 -9.484375 L 3.46875 -7.6875 L 3.234375 -8.078125 C 3.503906 -8.847656 3.9375 -9.445312 4.53125 -9.875 C 5.132812 -10.300781 5.851562 -10.515625 6.6875 -10.515625 C 7.570312 -10.515625 8.28125 -10.304688 8.8125 -9.890625 C 9.351562 -9.472656 9.710938 -8.835938 9.890625 -7.984375 L 9.59375 -7.984375 C 9.851562 -8.765625 10.3125 -9.378906 10.96875 -9.828125 C 11.625 -10.285156 12.390625 -10.515625 13.265625 -10.515625 C 14.035156 -10.515625 14.671875 -10.359375 15.171875 -10.046875 C 15.679688 -9.742188 16.0625 -9.289062 16.3125 -8.6875 C 16.570312 -8.09375 16.703125 -7.332031 16.703125 -6.40625 L 16.703125 -0.84375 C 16.703125 -0.519531 16.613281 -0.273438 16.4375 -0.109375 C 16.269531 0.0546875 16.039062 0.140625 15.75 0.140625 C 15.4375 0.140625 15.191406 0.0546875 15.015625 -0.109375 C 14.847656 -0.273438 14.765625 -0.519531 14.765625 -0.84375 L 14.765625 -6.3125 C 14.765625 -7.21875 14.609375 -7.878906 14.296875 -8.296875 C 13.984375 -8.722656 13.460938 -8.9375 12.734375 -8.9375 C 11.929688 -8.9375 11.289062 -8.65625 10.8125 -8.09375 C 10.34375 -7.539062 10.109375 -6.78125 10.109375 -5.8125 L 10.109375 -0.84375 C 10.109375 -0.519531 10.023438 -0.273438 9.859375 -0.109375 C 9.703125 0.0546875 9.46875 0.140625 9.15625 0.140625 C 8.84375 0.140625 8.597656 0.0546875 8.421875 -0.109375 C 8.253906 -0.273438 8.171875 -0.519531 8.171875 -0.84375 L 8.171875 -6.3125 C 8.171875 -7.21875 8.015625 -7.878906 7.703125 -8.296875 C 7.398438 -8.722656 6.878906 -8.9375 6.140625 -8.9375 C 5.335938 -8.9375 4.695312 -8.65625 4.21875 -8.09375 C 3.75 -7.539062 3.515625 -6.78125 3.515625 -5.8125 L 3.515625 -0.84375 C 3.515625 -0.1875 3.191406 0.140625 2.546875 0.140625 Z M 2.546875 0.140625 "/></g></g></g></svg>